<svg version="1.1" id="Layer_1" xmlns="http://www.w3.org/2000/svg" xmlns:xlink="http://www.w3.org/1999/xlink" x="0px" y="0px"
	 width="100%" viewBox="0 0 500 501" enable-background="new 0 0 500 501" xml:space="preserve">
<path fill="#1B0746" opacity="1.000000" stroke="none" 
	d="
M501.000000,2.000000 
	C501.000000,2.000000 501.000000,2.500000 500.723450,3.061023 
	C500.297913,5.097571 500.018707,6.573081 500.018524,8.048624 
	C499.998810,170.293884 499.996918,332.539154 500.041412,494.784424 
	C500.041901,496.523041 500.666687,498.261475 501.000000,500.000000 
	C501.000000,500.000000 501.000000,500.500000 500.537354,500.748932 
	C333.716461,500.998566 167.358231,500.999298 1.000000,501.000000 
	C1.000000,501.000000 1.000000,500.500000 1.276804,499.939148 
	C1.702305,497.902740 1.981067,496.427246 1.981245,494.951660 
	C2.000792,332.706299 2.002632,170.460968 1.958019,8.215631 
	C1.957541,6.476999 1.333139,4.738540 1.000000,3.000000 
	C1.000000,3.000000 1.000000,2.500000 1.462638,2.251214 
	C168.283524,2.001619 334.641754,2.000809 501.000000,2.000000 
M290.263123,215.819580 
	C290.161377,208.588364 290.059662,201.357132 289.781097,193.331757 
	C288.468597,192.887878 287.157379,192.061493 285.843384,192.056961 
	C262.598175,191.976700 239.352509,191.966354 216.107544,192.071014 
	C214.739441,192.077179 213.376297,193.184235 211.739090,194.059998 
	C211.415680,194.272888 211.092270,194.485794 209.967331,195.229340 
	C209.643311,196.470139 209.037979,197.710556 209.036255,198.951813 
	C208.987869,233.646576 208.979065,268.341492 209.085709,303.036011 
	C209.089783,304.357910 210.305923,305.676086 211.220551,307.210754 
	C211.220551,307.210754 211.125229,307.536896 211.430786,308.235016 
	C214.205536,308.559296 216.975464,309.111603 219.755814,309.170288 
	C235.954758,309.512329 252.155746,309.786987 268.357391,309.925140 
	C269.896301,309.938293 271.444611,308.851562 273.899353,308.157837 
	C279.308716,308.157837 284.718109,308.157837 289.962036,308.157837 
	C289.962036,300.192719 289.962036,292.949982 289.962036,285.451263 
	C277.001495,285.451263 264.378387,285.826263 251.787079,285.353424 
	C237.061401,284.800415 239.625137,288.223083 239.377258,273.675354 
	C239.374435,273.509003 239.375992,273.342590 239.375854,273.176208 
	C239.366257,262.357239 239.366257,262.359741 250.418884,262.363251 
	C261.025360,262.366638 271.631836,262.364014 282.810394,262.364014 
	C282.810394,255.543777 282.651794,249.267609 282.871765,243.004730 
	C282.997345,239.430069 281.615631,238.478348 278.196106,238.500610 
	C268.728088,238.562225 259.255249,238.360352 249.788971,238.096191 
	C239.899399,237.820236 239.901749,237.735489 240.052063,227.644592 
	C240.223190,216.156219 240.223267,216.155548 251.683121,217.194290 
	C251.839447,217.208466 251.986435,217.325714 252.268387,217.814896 
	C252.539230,217.674942 252.810074,217.534988 253.892242,217.077682 
	C256.182312,217.170547 258.472351,217.263412 261.282532,218.099335 
	C270.338348,218.334320 279.393768,218.607147 288.451050,218.705429 
	C288.966400,218.711029 289.497284,217.287659 290.263123,215.819580 
M151.045242,236.217026 
	C152.849823,224.706863 156.323502,213.746033 162.032547,203.562057 
	C178.998871,173.297073 204.971786,155.576096 239.094269,151.272659 
	C265.703491,147.916779 290.358978,154.756073 312.011536,171.205963 
	C313.128723,172.054703 315.867706,172.530594 316.596710,171.845230 
	C321.706421,167.041321 326.485931,161.886169 331.656006,156.549225 
	C296.408783,127.653839 256.503662,118.882011 214.614685,132.234299 
	C162.845840,148.735840 132.495392,186.242477 126.723793,240.832916 
	C123.125771,274.864777 134.175858,305.320984 156.113464,331.980469 
	C161.407074,326.757660 166.282471,322.129089 170.873611,317.233917 
	C171.615067,316.443359 171.728745,313.968597 171.058868,313.113129 
	C159.927261,298.897278 153.291290,282.864899 151.594208,264.342773 
	C151.730087,259.922852 152.041977,255.499405 151.953796,251.083939 
	C151.860092,246.392365 151.386993,241.708374 151.045242,236.217026 
M373.478088,269.249237 
	C379.113068,233.160431 369.039337,201.533600 345.778381,171.456100 
	C340.783325,177.070831 336.390778,181.774002 332.338684,186.754166 
	C331.494843,187.791275 331.161316,190.397217 331.860229,191.359955 
	C340.117798,202.735062 345.338562,215.378387 348.694733,228.955261 
	C352.904694,245.985809 352.030670,262.777405 347.292542,279.537231 
	C343.690826,292.277283 337.424896,303.639465 329.582825,314.203857 
	C335.048218,319.764709 340.336212,325.145050 345.867432,330.772858 
	C347.698303,328.446594 349.372589,326.431183 350.926636,324.326996 
	C362.896271,308.119934 370.520996,290.101288 373.478088,269.249237 
M314.868774,330.726288 
	C313.447876,331.238617 311.778748,331.431061 310.643707,332.311798 
	C296.087982,343.606079 279.355316,349.745819 261.322235,351.695831 
	C234.722351,354.572235 210.194107,348.444946 189.352661,332.861298 
	C184.149948,337.601746 179.086945,342.214874 173.988281,346.860504 
	C223.718399,386.287994 286.907623,383.798950 330.599609,345.492340 
	C325.459076,340.723602 320.374329,336.006592 314.868774,330.726288 
z"/>
<path fill="#27134E" opacity="1.000000" stroke="none" 
	d="
M501.000000,1.500000 
	C334.641754,2.000809 168.283524,2.001619 1.462638,2.001214 
	C2.333333,1.666667 3.665965,1.045924 5.000104,1.042664 
	C28.999962,0.984023 53.000000,1.000000 77.000000,1.000000 
	C218.333328,1.000000 359.666656,1.000000 501.000000,1.500000 
z"/>
<path fill="#27134E" opacity="1.000000" stroke="none" 
	d="
M1.000000,501.500000 
	C167.358231,500.999298 333.716461,500.998566 500.537354,500.998932 
	C499.666656,501.333313 498.334045,501.954071 496.999908,501.957336 
	C473.000031,502.015961 449.000000,502.000000 425.000000,502.000000 
	C283.666656,502.000000 142.333328,502.000000 1.000000,501.500000 
z"/>
<path fill="#26144E" opacity="1.000000" stroke="none" 
	d="
M501.000000,499.531342 
	C500.666687,498.261475 500.041901,496.523041 500.041412,494.784424 
	C499.996918,332.539154 499.998810,170.293884 500.018524,8.048624 
	C500.018707,6.573081 500.297913,5.097571 500.723450,3.311023 
	C501.000000,168.354233 501.000000,333.708466 501.000000,499.531342 
z"/>
<path fill="#27134E" opacity="1.000000" stroke="none" 
	d="
M1.000000,3.468657 
	C1.333139,4.738540 1.957541,6.476999 1.958019,8.215631 
	C2.002632,170.460968 2.000792,332.706299 1.981245,494.951660 
	C1.981067,496.427246 1.702305,497.902740 1.276804,499.689148 
	C1.000000,334.645782 1.000000,169.291550 1.000000,3.468657 
z"/>
<path fill="#FAD432" opacity="1.000000" stroke="none" 
	d="
M151.063904,264.975800 
	C153.291290,282.864899 159.927261,298.897278 171.058868,313.113129 
	C171.728745,313.968597 171.615067,316.443359 170.873611,317.233917 
	C166.282471,322.129089 161.407074,326.757660 156.113464,331.980469 
	C134.175858,305.320984 123.125771,274.864777 126.723793,240.832916 
	C132.495392,186.242477 162.845840,148.735840 214.614685,132.234299 
	C256.503662,118.882011 296.408783,127.653839 331.656006,156.549225 
	C326.485931,161.886169 321.706421,167.041321 316.596710,171.845230 
	C315.867706,172.530594 313.128723,172.054703 312.011536,171.205963 
	C290.358978,154.756073 265.703491,147.916779 239.094269,151.272659 
	C204.971786,155.576096 178.998871,173.297073 162.032547,203.562057 
	C156.323502,213.746033 152.849823,224.706863 150.950623,236.796997 
	C150.855988,237.376968 150.795502,237.793030 150.606110,237.860199 
	C150.416733,237.927353 150.053467,238.099106 149.769501,238.019012 
	C149.323486,242.966858 149.083725,247.993881 149.024429,253.023026 
	C148.978439,256.922150 149.157944,260.823944 149.237213,264.724548 
	C149.463638,264.609375 149.716934,264.526031 149.905853,264.366455 
	C150.009552,264.278809 150.004715,264.062744 150.237610,263.979675 
	C150.426407,264.054810 150.808319,264.193726 150.835083,264.401367 
	C150.861832,264.609039 151.063904,264.975800 151.063904,264.975800 
z"/>
<path fill="#FCFCFC" opacity="1.000000" stroke="none" 
	d="
M211.125229,307.536926 
	C211.125229,307.536896 211.220551,307.210754 211.144806,306.637878 
	C210.946548,269.705444 210.824051,233.345947 210.793243,196.706085 
	C210.823410,196.041138 210.761871,195.656540 210.747131,195.132172 
	C210.793930,194.992401 210.768860,194.698685 210.768860,194.698700 
	C211.092270,194.485794 211.415680,194.272888 212.341660,193.958801 
	C238.615463,193.947037 264.286713,194.036469 289.957947,194.125916 
	C290.059662,201.357132 290.161377,208.588364 289.703308,216.260620 
	C279.683167,216.919876 270.222778,217.138077 260.762421,217.356262 
	C258.472351,217.263412 256.182312,217.170547 253.250824,217.124313 
	C252.452209,217.245560 252.294983,217.320190 252.137772,217.394836 
	C251.986435,217.325714 251.839447,217.208466 251.683121,217.194290 
	C240.223267,216.155548 240.223190,216.156219 240.052063,227.644592 
	C239.901749,237.735489 239.899399,237.820236 249.788971,238.096191 
	C259.255249,238.360352 268.728088,238.562225 278.196106,238.500610 
	C281.615631,238.478348 282.997345,239.430069 282.871765,243.004730 
	C282.651794,249.267609 282.810394,255.543777 282.810394,262.364014 
	C271.631836,262.364014 261.025360,262.366638 250.418884,262.363251 
	C239.366257,262.359741 239.366257,262.357239 239.375854,273.176208 
	C239.375992,273.342590 239.374435,273.509003 239.377258,273.675354 
	C239.625137,288.223083 237.061401,284.800415 251.787079,285.353424 
	C264.378387,285.826263 277.001495,285.451263 289.962036,285.451263 
	C289.962036,292.949982 289.962036,300.192719 289.962036,308.157837 
	C284.718109,308.157837 279.308716,308.157837 272.985901,308.114441 
	C251.756729,307.893005 231.440979,307.714966 211.125229,307.536926 
z"/>
<path fill="#22D27F" opacity="1.000000" stroke="none" 
	d="
M373.459320,269.690308 
	C370.520996,290.101288 362.896271,308.119934 350.926636,324.326996 
	C349.372589,326.431183 347.698303,328.446594 345.867432,330.772858 
	C340.336212,325.145050 335.048218,319.764709 329.582825,314.203857 
	C337.424896,303.639465 343.690826,292.277283 347.292542,279.537231 
	C352.030670,262.777405 352.904694,245.985809 348.694733,228.955261 
	C345.338562,215.378387 340.117798,202.735062 331.860229,191.359955 
	C331.161316,190.397217 331.494843,187.791275 332.338684,186.754166 
	C336.390778,181.774002 340.783325,177.070831 345.778381,171.456100 
	C369.039337,201.533600 379.113068,233.160431 373.459320,269.690308 
z"/>
<path fill="#1887F9" opacity="1.000000" stroke="none" 
	d="
M315.079193,331.007935 
	C320.374329,336.006592 325.459076,340.723602 330.599609,345.492340 
	C286.907623,383.798950 223.718399,386.287994 173.988281,346.860504 
	C179.086945,342.214874 184.149948,337.601746 189.352661,332.861298 
	C210.194107,348.444946 234.722351,354.572235 261.322235,351.695831 
	C279.355316,349.745819 296.087982,343.606079 310.643707,332.311798 
	C311.778748,331.431061 313.447876,331.238617 315.079193,331.007935 
z"/>
<path fill="#0F003C" opacity="1.000000" stroke="none" 
	d="
M210.368103,194.964020 
	C210.768860,194.698685 210.793930,194.992401 210.587830,195.405090 
	C210.488342,196.207336 210.594940,196.596893 210.701538,196.986435 
	C210.824051,233.345947 210.946548,269.705444 211.013153,306.530487 
	C210.305923,305.676086 209.089783,304.357910 209.085709,303.036011 
	C208.979065,268.341492 208.987869,233.646576 209.036255,198.951813 
	C209.037979,197.710556 209.643311,196.470139 210.368103,194.964020 
z"/>
<path fill="#0F003C" opacity="1.000000" stroke="none" 
	d="
M289.869507,193.728821 
	C264.286713,194.036469 238.615463,193.947037 212.477539,193.818298 
	C213.376297,193.184235 214.739441,192.077179 216.107544,192.071014 
	C239.352509,191.966354 262.598175,191.976700 285.843384,192.056961 
	C287.157379,192.061493 288.468597,192.887878 289.869507,193.728821 
z"/>
<path fill="#0F003C" opacity="1.000000" stroke="none" 
	d="
M211.278015,307.885986 
	C231.440979,307.714966 251.756729,307.893005 272.530518,308.173248 
	C271.444611,308.851562 269.896301,309.938293 268.357391,309.925140 
	C252.155746,309.786987 235.954758,309.512329 219.755814,309.170288 
	C216.975464,309.111603 214.205536,308.559296 211.278015,307.885986 
z"/>
<path fill="#0F003C" opacity="1.000000" stroke="none" 
	d="
M261.022461,217.727798 
	C270.222778,217.138077 279.683167,216.919876 289.582214,216.615509 
	C289.497284,217.287659 288.966400,218.711029 288.451050,218.705429 
	C279.393768,218.607147 270.338348,218.334320 261.022461,217.727798 
z"/>
<path fill="#0F003C" opacity="1.000000" stroke="none" 
	d="
M150.795502,237.793030 
	C150.795502,237.793030 150.855988,237.376968 150.967789,237.199020 
	C151.386993,241.708374 151.860092,246.392365 151.953796,251.083939 
	C152.041977,255.499405 151.730087,259.922852 151.329056,264.659302 
	C151.063904,264.975800 150.861832,264.609039 150.907318,264.157959 
	C150.779037,263.435455 150.605240,263.164062 150.369812,262.596558 
	C150.323929,261.898163 150.339706,261.495850 150.553162,260.839722 
	C150.617538,259.359467 150.484207,258.132996 150.318420,256.506104 
	C150.298340,254.766998 150.310730,253.428314 150.531036,251.730865 
	C150.757812,246.845749 150.776657,242.319397 150.795502,237.793030 
z"/>
<path fill="#0F003C" opacity="1.000000" stroke="none" 
	d="
M252.203079,217.604858 
	C252.294983,217.320190 252.452209,217.245560 252.845184,217.282990 
	C252.810074,217.534988 252.539230,217.674942 252.203079,217.604858 
z"/>
<path fill="#FFEA30" opacity="1.000000" stroke="none" 
	d="
M150.355469,261.093536 
	C150.339706,261.495850 150.323929,261.898163 150.234482,262.834656 
	C150.123474,263.547424 150.086151,263.726013 150.048813,263.904572 
	C150.004715,264.062744 150.009552,264.278809 149.905853,264.366455 
	C149.716934,264.526031 149.463638,264.609375 149.237213,264.724548 
	C149.157944,260.823944 148.978439,256.922150 149.024429,253.023026 
	C149.083725,247.993881 149.323486,242.966858 149.764740,238.477325 
	C150.137024,243.373703 150.230087,247.731674 150.323120,252.089630 
	C150.310730,253.428314 150.298340,254.766998 150.180969,256.911774 
	C150.169144,258.843079 150.262299,259.968323 150.355469,261.093536 
z"/>
<path fill="#6B503E" opacity="1.000000" stroke="none" 
	d="
M150.531052,251.730865 
	C150.230087,247.731674 150.137024,243.373703 150.048721,238.557434 
	C150.053467,238.099106 150.416733,237.927353 150.606125,237.860199 
	C150.776657,242.319397 150.757812,246.845749 150.531052,251.730865 
z"/>
<path fill="#6B503E" opacity="1.000000" stroke="none" 
	d="
M150.237610,263.979675 
	C150.086151,263.726013 150.123474,263.547424 150.296143,263.130737 
	C150.605240,263.164062 150.779037,263.435455 150.880569,263.950317 
	C150.808319,264.193726 150.426407,264.054810 150.237610,263.979675 
z"/>
<path fill="#1B0746" opacity="1.000000" stroke="none" 
	d="
M210.793243,196.706085 
	C210.594940,196.596893 210.488342,196.207336 210.541046,195.544861 
	C210.761871,195.656540 210.823410,196.041138 210.793243,196.706085 
z"/>
<path fill="#6B503E" opacity="1.000000" stroke="none" 
	d="
M150.553162,260.839722 
	C150.262299,259.968323 150.169144,258.843079 150.213425,257.312195 
	C150.484207,258.132996 150.617538,259.359467 150.553162,260.839722 
z"/>
</svg>