<svg version="1.1" id="Layer_1" xmlns="http://www.w3.org/2000/svg" xmlns:xlink="http://www.w3.org/1999/xlink" x="0px" y="0px"
	 width="100%" viewBox="9 29 257 4" enable-background="new 0 0 296 64" xml:space="preserve">

<path fill="currentColor" opacity="1.000000" stroke="none" 
	d="
M266.016113,32.946369 
	C180.984756,32.958076 95.953407,32.969784 10.351831,32.760796 
	C9.596013,32.286190 9.353356,32.111526 9.053640,32.016113 
	C9.044640,31.564306 9.035639,31.112501 9.243268,30.221153 
	C9.713808,29.596012 9.888472,29.353357 9.983890,29.053644 
	C95.015251,29.041929 180.046616,29.030216 265.648193,29.239208 
	C266.403961,29.713877 266.646637,29.888535 266.946442,29.983887 
	C266.955444,30.435694 266.964447,30.887503 266.756775,31.778835 
	C266.286224,32.403969 266.111542,32.646641 266.016113,32.946369 
z"/>
<path fill="currentColor" opacity="1.000000" stroke="none" 
	d="
M9.765290,29.135254 
	C9.888472,29.353357 9.713808,29.596012 9.256708,29.882431 
	C9.107058,29.656427 9.271447,29.400967 9.765290,29.135254 
z"/>
<path fill="currentColor" opacity="1.000000" stroke="none" 
	d="
M266.864807,29.765285 
	C266.646637,29.888535 266.403961,29.713877 266.117554,29.256716 
	C266.343597,29.107050 266.599060,29.271439 266.864807,29.765285 
z"/>
<path fill="currentColor" opacity="1.000000" stroke="none" 
	d="
M9.135252,32.234711 
	C9.353356,32.111526 9.596013,32.286190 9.882431,32.743286 
	C9.656427,32.892941 9.400965,32.728554 9.135252,32.234711 
z"/>
<path fill="currentColor" opacity="1.000000" stroke="none" 
	d="
M266.234711,32.864754 
	C266.111542,32.646641 266.286224,32.403969 266.743347,32.117561 
	C266.892914,32.343563 266.728516,32.599022 266.234711,32.864754 
z"/>
</svg>