<svg version="1.1" id="Layer_1" xmlns="http://www.w3.org/2000/svg" xmlns:xlink="http://www.w3.org/1999/xlink" x="0px" y="0px"
	 width="100%" viewBox="0 0 882 880" enable-background="new 0 0 882 880" xml:space="preserve">
<path fill="#FFB71C" opacity="1.000000" stroke="none" 
	d="
M432.000000,881.000000 
	C288.000000,881.000000 144.500000,881.000000 1.000000,881.000000 
	C1.000000,587.666687 1.000000,294.333344 1.000000,1.000000 
	C295.000000,1.000000 589.000000,1.000000 883.000000,1.000000 
	C883.000000,294.333344 883.000000,587.666687 883.000000,881.000000 
	C732.833313,881.000000 582.666687,881.000000 432.000000,881.000000 
M409.022858,306.539825 
	C427.930908,331.253052 434.428589,359.017303 428.321869,389.396179 
	C422.215302,419.774384 402.892517,441.386169 378.805328,459.932678 
	C380.036377,460.726746 380.658936,461.218628 381.354370,461.563843 
	C411.598419,476.578461 425.758331,501.432861 425.939423,534.721924 
	C426.059967,556.876526 425.957733,579.032410 425.973602,601.187683 
	C425.974854,602.961853 426.119202,604.735840 426.208069,606.760315 
	C450.080139,606.760315 473.485260,606.760315 497.114807,606.760315 
	C497.229401,605.271973 497.416748,603.966492 497.417542,602.660950 
	C497.431549,580.172546 497.618713,557.681396 497.312866,535.197144 
	C497.204773,527.252625 496.487183,519.208740 494.996307,511.411255 
	C490.747589,489.189148 479.975800,471.399750 458.837036,461.203308 
	C458.468933,461.025757 458.276611,460.483734 457.792145,459.826935 
	C458.720367,458.854950 459.524841,457.835785 460.498596,457.018158 
	C515.799133,410.583282 515.820312,326.776703 460.398041,280.383087 
	C458.199890,278.542999 454.788300,277.277710 451.925171,277.245483 
	C429.439606,276.992249 406.949860,277.099701 384.461426,277.119293 
	C383.080017,277.120514 381.698792,277.319153 380.800018,277.388641 
	C390.115692,286.967743 399.353271,296.466492 409.022858,306.539825 
M259.028625,491.636505 
	C267.006409,505.426636 269.882202,520.445007 269.853333,536.191162 
	C269.813629,557.851501 269.844391,579.511963 269.844971,601.172363 
	C269.845032,602.953613 269.844971,604.734924 269.844971,606.772583 
	C293.811157,606.772583 317.209961,606.772583 340.876068,606.772583 
	C340.999146,605.764404 341.180328,604.975464 341.179443,604.186829 
	C341.149780,578.528503 341.484406,552.861755 340.923859,527.214722 
	C340.550262,510.124329 335.997101,493.984467 325.665009,479.945801 
	C319.445862,471.495575 311.333252,465.248444 301.093292,459.634644 
	C302.624084,457.801117 304.722351,456.759674 306.411621,455.258118 
	C332.697998,431.892181 346.114471,402.329742 345.777893,367.419830 
	C345.445007,332.895966 331.688538,303.796844 305.252777,281.208679 
	C302.614014,278.954010 298.511871,277.336975 295.060059,277.283325 
	C272.738556,276.936646 250.409073,277.101044 228.082230,277.120941 
	C226.850540,277.122040 225.619049,277.329498 223.529465,277.518524 
	C225.101685,278.987915 226.045303,279.833099 226.948380,280.719604 
	C235.244049,288.863098 244.286102,296.388184 251.674164,305.286194 
	C269.787445,327.101379 276.889832,352.626892 273.703003,380.744720 
	C270.782257,406.514587 258.301422,427.527954 239.796082,445.193970 
	C234.449173,450.298340 228.755249,455.039215 222.761719,460.353394 
	C237.917419,467.402527 250.109833,477.117828 259.028625,491.636505 
M575.500000,277.105438 
	C562.458313,277.105438 549.416626,277.105438 536.374939,277.105438 
	C566.140686,301.241150 586.881836,329.717316 586.653442,369.296478 
	C586.425415,408.807007 565.179260,436.961884 535.633118,459.382996 
	C543.565247,465.093018 551.681641,469.832794 558.461670,476.033783 
	C575.331787,491.463318 581.922607,511.485565 581.994934,533.921387 
	C582.066956,556.252319 582.207825,578.586548 581.872437,600.912659 
	C581.792542,606.230530 583.485718,607.212341 588.354126,607.146729 
	C608.015320,606.881592 627.682190,607.036804 647.346924,607.036804 
	C649.133057,607.036804 650.919189,607.036804 653.272034,607.036804 
	C653.272034,604.537354 653.272095,602.587646 653.272034,600.637939 
	C653.271790,578.473450 653.365417,556.308228 653.211670,534.144836 
	C653.167969,527.838318 652.889771,521.458008 651.880554,515.247803 
	C648.858765,496.653656 641.824219,480.044342 626.318909,468.217194 
	C622.438354,465.257202 618.096375,462.902069 613.501099,459.972260 
	C614.896606,458.677094 615.914429,457.654785 617.011475,456.726227 
	C628.455994,447.039795 637.861023,435.655792 644.724426,422.338104 
	C669.984192,373.324890 658.850342,316.606354 616.829285,280.690002 
	C614.441589,278.649200 610.676147,277.396606 607.490356,277.264832 
	C597.175659,276.838135 586.832336,277.105469 575.500000,277.105438 
z"/>
<path fill="#50303C" opacity="1.000000" stroke="none" 
	d="
M408.806824,306.252533 
	C399.353271,296.466492 390.115692,286.967743 380.800018,277.388641 
	C381.698792,277.319153 383.080017,277.120514 384.461426,277.119293 
	C406.949860,277.099701 429.439606,276.992249 451.925171,277.245483 
	C454.788300,277.277710 458.199890,278.542999 460.398041,280.383087 
	C515.820312,326.776703 515.799133,410.583282 460.498596,457.018158 
	C459.524841,457.835785 458.720367,458.854950 457.792145,459.826935 
	C458.276611,460.483734 458.468933,461.025757 458.837036,461.203308 
	C479.975800,471.399750 490.747589,489.189148 494.996307,511.411255 
	C496.487183,519.208740 497.204773,527.252625 497.312866,535.197144 
	C497.618713,557.681396 497.431549,580.172546 497.417542,602.660950 
	C497.416748,603.966492 497.229401,605.271973 497.114807,606.760315 
	C473.485260,606.760315 450.080139,606.760315 426.208069,606.760315 
	C426.119202,604.735840 425.974854,602.961853 425.973602,601.187683 
	C425.957733,579.032410 426.059967,556.876526 425.939423,534.721924 
	C425.758331,501.432861 411.598419,476.578461 381.354370,461.563843 
	C380.658936,461.218628 380.036377,460.726746 378.805328,459.932678 
	C402.892517,441.386169 422.215302,419.774384 428.321869,389.396179 
	C434.428589,359.017303 427.930908,331.253052 408.806824,306.252533 
z"/>
<path fill="#50303C" opacity="1.000000" stroke="none" 
	d="
M258.836243,491.324158 
	C250.109833,477.117828 237.917419,467.402527 222.761719,460.353394 
	C228.755249,455.039215 234.449173,450.298340 239.796082,445.193970 
	C258.301422,427.527954 270.782257,406.514587 273.703003,380.744720 
	C276.889832,352.626892 269.787445,327.101379 251.674164,305.286194 
	C244.286102,296.388184 235.244049,288.863098 226.948380,280.719604 
	C226.045303,279.833099 225.101685,278.987915 223.529465,277.518524 
	C225.619049,277.329498 226.850540,277.122040 228.082230,277.120941 
	C250.409073,277.101044 272.738556,276.936646 295.060059,277.283325 
	C298.511871,277.336975 302.614014,278.954010 305.252777,281.208679 
	C331.688538,303.796844 345.445007,332.895966 345.777893,367.419830 
	C346.114471,402.329742 332.697998,431.892181 306.411621,455.258118 
	C304.722351,456.759674 302.624084,457.801117 301.093292,459.634644 
	C311.333252,465.248444 319.445862,471.495575 325.665009,479.945801 
	C335.997101,493.984467 340.550262,510.124329 340.923859,527.214722 
	C341.484406,552.861755 341.149780,578.528503 341.179443,604.186829 
	C341.180328,604.975464 340.999146,605.764404 340.876068,606.772583 
	C317.209961,606.772583 293.811157,606.772583 269.844971,606.772583 
	C269.844971,604.734924 269.845032,602.953613 269.844971,601.172363 
	C269.844391,579.511963 269.813629,557.851501 269.853333,536.191162 
	C269.882202,520.445007 267.006409,505.426636 258.836243,491.324158 
z"/>
<path fill="#50303C" opacity="1.000000" stroke="none" 
	d="
M576.000000,277.105438 
	C586.832336,277.105469 597.175659,276.838135 607.490356,277.264832 
	C610.676147,277.396606 614.441589,278.649200 616.829285,280.690002 
	C658.850342,316.606354 669.984192,373.324890 644.724426,422.338104 
	C637.861023,435.655792 628.455994,447.039795 617.011475,456.726227 
	C615.914429,457.654785 614.896606,458.677094 613.501099,459.972260 
	C618.096375,462.902069 622.438354,465.257202 626.318909,468.217194 
	C641.824219,480.044342 648.858765,496.653656 651.880554,515.247803 
	C652.889771,521.458008 653.167969,527.838318 653.211670,534.144836 
	C653.365417,556.308228 653.271790,578.473450 653.272034,600.637939 
	C653.272095,602.587646 653.272034,604.537354 653.272034,607.036804 
	C650.919189,607.036804 649.133057,607.036804 647.346924,607.036804 
	C627.682190,607.036804 608.015320,606.881592 588.354126,607.146729 
	C583.485718,607.212341 581.792542,606.230530 581.872437,600.912659 
	C582.207825,578.586548 582.066956,556.252319 581.994934,533.921387 
	C581.922607,511.485565 575.331787,491.463318 558.461670,476.033783 
	C551.681641,469.832794 543.565247,465.093018 535.633118,459.382996 
	C565.179260,436.961884 586.425415,408.807007 586.653442,369.296478 
	C586.881836,329.717316 566.140686,301.241150 536.374939,277.105438 
	C549.416626,277.105438 562.458313,277.105438 576.000000,277.105438 
z"/>
</svg>