<svg version="1.1" id="Layer_1" xmlns="http://www.w3.org/2000/svg" xmlns:xlink="http://www.w3.org/1999/xlink" x="0px" y="0px"
	 width="100%" viewBox="0 0 1002 1000" enable-background="new 0 0 1002 1000" xml:space="preserve">
<path fill="#B5FFF2" opacity="1.000000" stroke="none" 
	d="
M439.000000,1001.000000 
	C292.666656,1001.000000 146.833328,1001.000000 1.000000,1001.000000 
	C1.000000,667.666687 1.000000,334.333344 1.000000,1.000000 
	C335.000000,1.000000 669.000000,1.000000 1003.000000,1.000000 
	C1003.000000,334.333344 1003.000000,667.666687 1003.000000,1001.000000 
	C815.166687,1001.000000 627.333313,1001.000000 439.000000,1001.000000 
M417.676758,431.201569 
	C418.439758,431.194366 419.202789,431.187195 420.116150,431.417389 
	C420.116150,431.417389 420.395874,431.390930 420.940430,431.853546 
	C424.645355,432.569916 428.350250,433.286285 432.800964,434.366486 
	C433.902771,434.488556 435.004608,434.610657 436.685730,435.128204 
	C440.137360,435.775970 443.588989,436.423767 447.770935,437.476318 
	C448.882294,437.565491 449.993683,437.654663 451.524200,438.307739 
	C455.981567,439.156250 460.452515,439.939667 464.893494,440.866730 
	C474.429199,442.857208 483.949463,444.921814 494.017090,447.365448 
	C494.692200,448.656677 495.579529,449.899139 495.895508,451.272919 
	C495.976044,451.623016 494.316711,452.652435 493.333618,452.924103 
	C485.091248,455.201813 476.768158,457.200195 468.571625,459.627869 
	C459.627533,462.276947 450.807251,465.341339 441.905701,468.137878 
	C433.752319,470.699310 425.548218,473.099243 417.393860,475.657623 
	C411.934448,477.370483 406.561157,479.363800 401.080688,481.002136 
	C393.526428,483.260498 385.860016,485.149139 378.329529,487.480042 
	C370.825470,489.802734 363.589203,493.268951 355.948242,494.803741 
	C345.325684,496.937500 335.538757,500.989136 327.687653,507.925507 
	C314.342621,519.715637 305.486176,534.058167 305.734253,553.051697 
	C305.850769,561.973267 306.385742,570.865417 309.895721,578.726562 
	C316.511475,593.543518 327.303284,604.959656 342.887756,610.845764 
	C349.845215,613.473450 357.070221,615.401978 364.211517,617.520691 
	C364.978577,617.748352 365.998474,617.123779 367.606232,617.128845 
	C368.969086,617.481689 370.331940,617.834473 372.046753,618.832092 
	C379.030243,620.390442 386.013702,621.948730 393.806793,623.837646 
	C395.770447,624.025208 397.766968,624.046875 399.692108,624.428589 
	C408.801392,626.234680 417.891144,628.139282 427.382477,630.582153 
	C428.111115,630.943909 428.804749,631.497192 429.573792,631.638000 
	C437.804352,633.144165 446.069031,634.475159 454.268066,636.132629 
	C456.005402,636.483826 457.514801,637.962646 458.733246,639.552368 
	C457.196625,640.364258 455.743286,641.466675 454.108246,641.935486 
	C448.455627,643.556519 442.683868,644.773438 437.061401,646.485718 
	C429.273224,648.857544 421.634247,651.724121 413.830688,654.039490 
	C404.446747,656.823730 395.134979,659.177368 386.825012,665.105408 
	C373.042511,674.937317 366.609863,688.446533 366.476135,704.554443 
	C366.383453,715.723328 370.950653,726.220459 378.570221,734.677979 
	C385.730591,742.625916 394.895081,747.970886 405.392212,749.934937 
	C410.969696,750.978577 417.142456,750.869263 422.681976,749.638977 
	C432.363037,747.488953 441.744415,744.009644 451.288086,741.212463 
	C456.281860,739.748779 461.401428,738.707764 466.376312,737.188171 
	C471.076721,735.752380 475.602295,733.739075 480.311371,732.338013 
	C488.439362,729.919800 496.703400,727.954224 504.812988,725.479675 
	C516.337891,721.962891 527.777771,718.166870 539.247986,714.471802 
	C545.785400,712.365784 552.266479,710.071228 558.853638,708.136292 
	C566.992676,705.745422 575.280334,703.849915 583.383789,701.351135 
	C591.343018,698.896912 598.989746,695.240479 607.067627,693.407349 
	C617.284607,691.088745 626.569275,687.282776 634.923401,681.041077 
	C645.543274,673.106445 653.024170,662.634827 656.596069,650.129211 
	C659.269348,640.769958 660.620056,631.187256 657.794250,620.862549 
	C654.741333,609.708252 649.975708,600.068787 642.621155,591.471924 
	C637.246704,585.189575 629.965149,581.800232 622.818542,577.942932 
	C615.629944,574.063049 608.201233,572.543884 599.952026,571.353210 
	C595.304016,570.303711 590.655945,569.254150 585.210205,568.071350 
	C581.143127,567.142029 577.076050,566.212646 572.217834,565.077698 
	C569.549072,564.673462 566.880371,564.269226 563.938599,563.165527 
	C558.728088,561.979248 553.541077,560.674438 548.301147,559.636902 
	C541.890564,558.367615 535.435608,557.322327 528.277039,555.800476 
	C521.773132,554.496521 515.269226,553.192566 508.687439,551.012573 
	C508.687439,549.445618 508.687439,547.878723 508.687439,546.648132 
	C514.524170,545.094238 519.568420,543.848511 524.551758,542.394104 
	C528.585327,541.216858 532.544128,539.784180 536.538696,538.472656 
	C544.207886,535.954590 551.848267,533.343323 559.559875,530.962891 
	C564.522156,529.431152 569.639221,528.400146 574.599854,526.863647 
	C582.841309,524.310974 590.972229,521.399170 599.225159,518.886475 
	C607.490417,516.369995 615.905029,514.339417 624.151428,511.766418 
	C635.285950,508.292206 646.340210,504.556610 657.395630,500.834412 
	C668.940918,496.947266 678.590210,490.596924 685.778625,480.394165 
	C694.757141,467.650757 700.002136,453.936523 698.778381,438.206635 
	C698.544800,435.204193 697.029663,432.324341 696.479553,429.319519 
	C694.626404,419.196014 689.271667,410.880310 682.855835,403.233307 
	C671.410339,389.591400 654.950623,385.608734 638.825256,381.177216 
	C637.468567,380.804382 635.746826,381.760101 633.623413,381.863068 
	C633.333862,381.579468 633.044312,381.295898 632.593811,380.349426 
	C624.730896,378.623199 616.868042,376.897003 608.214172,374.929871 
	C605.824768,374.575409 603.435425,374.220978 600.580566,373.261688 
	C598.840271,372.868103 597.110229,372.420044 595.357849,372.091034 
	C589.909790,371.068115 584.453186,370.090332 578.342163,368.869629 
	C577.649719,368.880066 576.957214,368.890503 575.889221,368.267426 
	C567.880188,366.470276 559.899902,364.524231 551.844360,362.967773 
	C549.466492,362.508331 547.261475,362.568817 547.667358,359.100800 
	C555.208740,356.913391 562.774231,354.805115 570.285339,352.518280 
	C579.538086,349.701233 588.783081,346.847382 597.952881,343.775177 
	C601.308533,342.650909 604.486206,340.948975 607.664062,339.349487 
	C616.329956,334.987885 622.545532,327.975525 626.641846,319.489349 
	C629.505127,313.557648 631.944763,306.972290 632.545349,300.490936 
	C633.798706,286.964996 627.444031,275.635529 619.030823,265.685486 
	C607.125061,251.605103 591.046326,248.834396 574.037476,251.869171 
	C563.460510,253.756332 553.270386,257.828674 542.920227,260.965271 
	C530.115417,264.845795 517.324463,268.771973 504.528137,272.680573 
	C500.314819,273.967560 496.087372,275.210999 491.894531,276.561707 
	C480.696106,280.169067 469.543549,283.921844 458.313538,287.427032 
	C450.186462,289.963715 441.942078,292.121979 433.790466,294.583008 
	C421.561951,298.274933 409.278198,301.818329 397.193390,305.939423 
	C389.441833,308.582825 381.255951,311.036011 374.576691,315.526093 
	C358.219910,326.521759 348.727722,342.127289 347.420593,362.234375 
	C346.496307,376.452820 349.703491,389.687592 357.869781,401.250916 
	C369.246460,417.360046 386.093109,424.698364 404.808136,428.447876 
	C406.173279,428.721405 407.689484,428.240997 409.444641,428.199188 
	C409.444641,428.199188 409.764435,428.156708 410.306671,428.798370 
	C410.572968,428.885101 410.839233,428.971832 411.274292,429.674164 
	C413.174774,430.079498 415.075256,430.484863 417.676758,431.201569 
z"/>
<path fill="#24D8AF" opacity="1.000000" stroke="none" 
	d="
M634.194641,382.098602 
	C635.746826,381.760101 637.468567,380.804382 638.825256,381.177216 
	C654.950623,385.608734 671.410339,389.591400 682.855835,403.233307 
	C689.271667,410.880310 694.626404,419.196014 696.479553,429.319519 
	C697.029663,432.324341 698.544800,435.204193 698.778381,438.206635 
	C700.002136,453.936523 694.757141,467.650757 685.778625,480.394165 
	C678.590210,490.596924 668.940918,496.947266 657.395630,500.834412 
	C646.340210,504.556610 635.285950,508.292206 624.151428,511.766418 
	C615.905029,514.339417 607.490417,516.369995 599.225159,518.886475 
	C590.972229,521.399170 582.841309,524.310974 574.599854,526.863647 
	C569.639221,528.400146 564.522156,529.431152 559.559875,530.962891 
	C551.848267,533.343323 544.207886,535.954590 536.538696,538.472656 
	C532.544128,539.784180 528.585327,541.216858 524.551758,542.394104 
	C519.568420,543.848511 514.524170,545.094238 508.687439,546.648132 
	C508.687439,547.878723 508.687439,549.445618 508.345154,551.508179 
	C506.680725,552.025269 505.358582,552.046753 504.007568,552.032104 
	C503.978729,551.996094 503.889557,551.972107 503.863586,551.586182 
	C500.806061,547.879395 496.636261,548.234924 494.494843,551.951294 
	C490.371002,552.921387 486.660248,553.901733 482.531311,554.915894 
	C479.358765,555.938843 476.521149,557.933228 473.866943,557.713257 
	C467.878632,557.217224 463.415710,561.136169 457.619049,562.039551 
	C454.872253,563.007263 452.582458,564.178650 450.159729,564.909058 
	C439.803589,568.031250 429.408234,571.023438 418.657471,574.093506 
	C416.067810,575.075195 413.917572,576.267273 411.615143,576.933350 
	C404.123505,579.100403 396.576172,581.075134 388.647095,583.109680 
	C383.138977,584.721436 378.017731,586.298340 372.932861,587.984802 
	C365.155762,590.564148 357.763763,597.871277 360.304504,606.694641 
	C361.376953,610.418945 364.635956,613.513611 366.901062,616.894531 
	C365.998474,617.123779 364.978577,617.748352 364.211517,617.520691 
	C357.070221,615.401978 349.845215,613.473450 342.887756,610.845764 
	C327.303284,604.959656 316.511475,593.543518 309.895721,578.726562 
	C306.385742,570.865417 305.850769,561.973267 305.734253,553.051697 
	C305.486176,534.058167 314.342621,519.715637 327.687653,507.925507 
	C335.538757,500.989136 345.325684,496.937500 355.948242,494.803741 
	C363.589203,493.268951 370.825470,489.802734 378.329529,487.480042 
	C385.860016,485.149139 393.526428,483.260498 401.080688,481.002136 
	C406.561157,479.363800 411.934448,477.370483 417.393860,475.657623 
	C425.548218,473.099243 433.752319,470.699310 441.905701,468.137878 
	C450.807251,465.341339 459.627533,462.276947 468.571625,459.627869 
	C476.768158,457.200195 485.091248,455.201813 493.333618,452.924103 
	C494.316711,452.652435 495.976044,451.623016 495.895508,451.272919 
	C495.579529,449.899139 494.692200,448.656677 494.102478,447.114777 
	C495.827393,447.232269 497.453705,447.717651 499.113617,447.905365 
	C499.699310,447.971619 500.367249,447.310181 501.446503,447.023376 
	C504.596466,447.011932 507.297546,446.958130 510.412048,446.931030 
	C512.982910,446.695343 515.958984,447.945007 516.577454,444.081482 
	C518.656555,443.978119 520.318726,443.862854 522.355103,443.796631 
	C524.484070,442.893311 526.238831,441.940918 528.368591,440.996552 
	C529.489441,440.940613 530.235352,440.876648 531.363892,440.855957 
	C533.505127,439.945190 535.263672,438.991089 537.394287,438.041473 
	C538.506897,437.985870 539.247498,437.925781 540.432617,437.895569 
	C543.533325,436.828430 547.946472,440.450592 549.332397,434.935059 
	C550.469116,434.880157 551.225281,434.809509 552.391724,434.795898 
	C554.917786,434.608337 557.928650,435.976837 558.345276,431.992859 
	C559.477966,431.930206 560.231506,431.861938 561.408813,431.841217 
	C564.773499,431.531403 568.424316,433.058563 570.296997,428.867554 
	C571.445190,428.815247 572.208862,428.740326 573.381836,428.738586 
	C575.900024,428.587585 578.927124,429.988037 578.904236,425.930542 
	C578.934692,425.922272 578.943420,425.859711 579.356689,425.897766 
	C582.165649,425.639160 585.335144,427.005676 586.433960,423.045319 
	C588.225586,422.929230 589.601440,422.796326 591.348999,422.730621 
	C593.475586,421.857147 595.230469,420.916443 597.362183,419.983582 
	C598.486816,419.911316 599.234558,419.831268 600.356567,419.803314 
	C602.496460,418.921173 604.262146,417.986938 606.424561,417.053528 
	C607.870056,416.939087 608.918762,416.823822 610.373779,416.789490 
	C613.729004,416.563385 617.300598,417.463196 618.531738,413.079529 
	C621.309937,412.451141 623.698669,411.815186 626.472534,411.131714 
	C627.886536,410.961700 628.915405,410.839203 630.334839,410.784454 
	C634.647095,410.549133 637.744263,409.058868 639.397766,404.868774 
	C640.726624,402.921082 642.318054,401.254517 642.668274,399.358643 
	C644.378784,390.098785 642.664673,386.857880 634.194641,382.098602 
z"/>
<path fill="#4C1ECC" opacity="1.000000" stroke="none" 
	d="
M600.341919,571.916016 
	C608.201233,572.543884 615.629944,574.063049 622.818542,577.942932 
	C629.965149,581.800232 637.246704,585.189575 642.621155,591.471924 
	C649.975708,600.068787 654.741333,609.708252 657.794250,620.862549 
	C660.620056,631.187256 659.269348,640.769958 656.596069,650.129211 
	C653.024170,662.634827 645.543274,673.106445 634.923401,681.041077 
	C626.569275,687.282776 617.284607,691.088745 607.067627,693.407349 
	C598.989746,695.240479 591.343018,698.896912 583.383789,701.351135 
	C575.280334,703.849915 566.992676,705.745422 558.853638,708.136292 
	C552.266479,710.071228 545.785400,712.365784 539.247986,714.471802 
	C527.777771,718.166870 516.337891,721.962891 504.812988,725.479675 
	C496.703400,727.954224 488.439362,729.919800 480.311371,732.338013 
	C475.602295,733.739075 471.076721,735.752380 466.376312,737.188171 
	C461.401428,738.707764 456.281860,739.748779 451.288086,741.212463 
	C441.744415,744.009644 432.363037,747.488953 422.681976,749.638977 
	C417.142456,750.869263 410.969696,750.978577 405.392212,749.934937 
	C394.895081,747.970886 385.730591,742.625916 378.570221,734.677979 
	C370.950653,726.220459 366.383453,715.723328 366.476135,704.554443 
	C366.609863,688.446533 373.042511,674.937317 386.825012,665.105408 
	C395.134979,659.177368 404.446747,656.823730 413.830688,654.039490 
	C421.634247,651.724121 429.273224,648.857544 437.061401,646.485718 
	C442.683868,644.773438 448.455627,643.556519 454.108246,641.935486 
	C455.743286,641.466675 457.196625,640.364258 459.341339,639.248840 
	C462.632782,637.993042 465.316101,637.040771 468.430511,636.138672 
	C470.577118,636.010620 472.292694,635.832520 474.381104,635.703369 
	C479.618408,633.966492 484.451111,632.086914 489.357819,630.425842 
	C493.018951,629.186401 496.799408,628.303955 500.484558,627.130005 
	C506.676392,625.157471 512.834778,623.079773 519.422485,621.070679 
	C521.460083,620.848022 523.145386,620.802124 524.693359,620.317444 
	C530.102417,618.623779 535.494019,616.863037 540.834229,614.964600 
	C545.262878,613.390320 549.609741,611.585938 554.401001,609.929810 
	C558.223633,608.996277 561.638245,608.016418 565.444458,607.028442 
	C570.219299,605.653320 574.602478,604.286194 579.410278,602.948730 
	C585.523254,600.884521 591.336426,599.072327 596.867126,596.622375 
	C603.185242,593.823547 604.740051,588.265930 603.554382,581.966248 
	C602.908813,578.536133 601.439636,575.261047 600.341919,571.916016 
z"/>
<path fill="#4C1ECC" opacity="1.000000" stroke="none" 
	d="
M409.135437,428.111084 
	C407.689484,428.240997 406.173279,428.721405 404.808136,428.447876 
	C386.093109,424.698364 369.246460,417.360046 357.869781,401.250916 
	C349.703491,389.687592 346.496307,376.452820 347.420593,362.234375 
	C348.727722,342.127289 358.219910,326.521759 374.576691,315.526093 
	C381.255951,311.036011 389.441833,308.582825 397.193390,305.939423 
	C409.278198,301.818329 421.561951,298.274933 433.790466,294.583008 
	C441.942078,292.121979 450.186462,289.963715 458.313538,287.427032 
	C469.543549,283.921844 480.696106,280.169067 491.894531,276.561707 
	C496.087372,275.210999 500.314819,273.967560 504.528137,272.680573 
	C517.324463,268.771973 530.115417,264.845795 542.920227,260.965271 
	C553.270386,257.828674 563.460510,253.756332 574.037476,251.869171 
	C591.046326,248.834396 607.125061,251.605103 619.030823,265.685486 
	C627.444031,275.635529 633.798706,286.964996 632.545349,300.490936 
	C631.944763,306.972290 629.505127,313.557648 626.641846,319.489349 
	C622.545532,327.975525 616.329956,334.987885 607.664062,339.349487 
	C604.486206,340.948975 601.308533,342.650909 597.952881,343.775177 
	C588.783081,346.847382 579.538086,349.701233 570.285339,352.518280 
	C562.774231,354.805115 555.208740,356.913391 547.129150,359.468201 
	C546.042725,360.350159 545.494446,360.864716 544.614380,361.213318 
	C543.685791,360.784729 542.990723,360.174744 542.506836,360.311523 
	C535.155762,362.389435 527.807068,364.483521 520.509277,366.740204 
	C512.756409,369.137604 505.089386,371.814667 497.324890,374.171997 
	C491.880402,375.824982 486.268768,376.937744 480.850616,378.664642 
	C472.519409,381.320068 464.290222,384.295563 455.604431,387.098785 
	C449.462311,389.029419 443.733490,390.996521 437.584930,392.945129 
	C433.460571,394.003418 429.755951,395.080200 425.636017,396.120758 
	C418.294006,397.592926 411.451141,399.296173 406.122467,404.449249 
	C400.288544,410.091003 399.673370,423.172882 408.938293,427.254181 
	C409.014282,427.459290 409.258881,427.821960 409.204773,427.884308 
	C409.150635,427.946655 409.135437,428.111084 409.135437,428.111084 
z"/>
<path fill="#148A77" opacity="1.000000" stroke="none" 
	d="
M456.017761,387.135254 
	C464.290222,384.295563 472.519409,381.320068 480.850616,378.664642 
	C486.268768,376.937744 491.880402,375.824982 497.324890,374.171997 
	C505.089386,371.814667 512.756409,369.137604 520.509277,366.740204 
	C527.807068,364.483521 535.155762,362.389435 542.506836,360.311523 
	C542.990723,360.174744 543.685791,360.784729 544.741211,361.526489 
	C554.770081,367.839417 565.271301,369.479065 576.264771,368.900970 
	C576.957214,368.890503 577.649719,368.880066 578.670166,369.345245 
	C578.998840,370.546844 578.999451,371.272797 578.570923,371.999329 
	C569.405334,372.043457 568.767517,373.273865 572.809082,380.835663 
	C574.573364,384.136566 576.440063,387.748322 576.784424,391.359680 
	C577.346741,397.256622 582.205078,402.923035 578.078369,409.188354 
	C577.749878,409.687073 578.188049,410.808228 578.464539,411.569489 
	C580.821350,418.059479 580.270508,419.236328 574.312256,422.247650 
	C573.464294,422.676208 573.420837,424.696838 573.000977,426.319244 
	C572.988708,427.327026 572.980591,427.996216 572.972473,428.665405 
	C572.208862,428.740326 571.445190,428.815247 570.032532,428.642883 
	C566.557617,429.462952 562.245239,426.856567 560.985107,431.793671 
	C560.231506,431.861938 559.477966,431.930206 557.937073,431.993652 
	C555.118958,432.326630 552.120300,430.845398 551.981445,434.738861 
	C551.225281,434.809509 550.469116,434.880157 549.082581,434.699036 
	C546.437317,434.447205 544.422363,434.447205 541.979797,434.447205 
	C542.357971,433.278412 542.380066,432.115082 542.869141,431.864990 
	C548.777832,428.843658 549.798706,422.485748 552.701477,417.477631 
	C557.739685,408.785126 556.789490,400.686554 550.302368,392.761078 
	C549.779480,392.122284 549.084167,391.460785 548.925110,390.712891 
	C547.071472,381.993622 539.000244,381.682678 532.859375,379.031311 
	C524.589111,375.460449 516.186035,377.501373 508.142731,380.092163 
	C502.014343,382.066162 497.309265,386.035065 493.880707,391.899567 
	C489.583344,399.250061 490.300476,406.697479 491.263123,414.506836 
	C492.166626,421.836334 494.530365,427.892731 501.658661,431.296478 
	C502.910065,431.894012 503.956512,433.289795 504.678864,434.555817 
	C506.668518,438.042908 509.670380,439.257324 513.470825,438.996338 
	C518.096802,438.678680 522.721680,438.127106 527.345398,438.143372 
	C528.560486,438.147644 529.769470,439.876007 530.981201,440.812622 
	C530.235352,440.876648 529.489441,440.940613 528.129578,440.751404 
	C524.881958,440.237885 522.355713,440.160492 521.980957,443.747589 
	C520.318726,443.862854 518.656555,443.978119 516.178162,444.058868 
	C513.574219,444.984314 511.786438,445.944336 509.998657,446.904358 
	C507.297546,446.958130 504.596466,447.011932 501.199036,446.765076 
	C498.743317,445.647766 497.059509,444.443176 495.211121,444.082764 
	C487.887939,442.654877 480.505371,441.534454 473.163971,440.194977 
	C471.594666,439.908630 470.132324,438.842621 468.574707,438.720184 
	C462.761841,438.263123 456.929840,438.049042 451.105042,437.743835 
	C449.993683,437.654663 448.882294,437.565491 447.393738,437.017029 
	C447.011444,436.041779 447.006348,435.525757 447.435516,435.006897 
	C452.133698,435.670502 453.198608,433.652069 453.081238,429.652405 
	C452.816345,420.626648 453.131592,411.584198 452.889069,402.557190 
	C452.782257,398.581543 451.891541,394.626892 451.422516,391.150360 
	C452.827606,389.922668 454.422699,388.528961 456.017761,387.135254 
z"/>
<path fill="#148A77" opacity="1.000000" stroke="none" 
	d="
M474.008240,635.654358 
	C472.292694,635.832520 470.577118,636.010620 468.391632,635.803467 
	C466.221985,630.480286 464.520233,636.248474 463.046875,634.456482 
	C452.259888,632.458740 441.472931,630.461060 430.400085,628.410400 
	C429.728638,628.724915 428.358246,629.366821 426.987854,630.008728 
	C417.891144,628.139282 408.801392,626.234680 399.692108,624.428589 
	C397.766968,624.046875 395.770447,624.025208 393.432556,623.294617 
	C393.285034,622.318054 393.489258,621.520264 393.741669,621.504761 
	C398.927063,621.185303 403.991699,620.021301 409.195984,622.779541 
	C411.583588,624.044983 415.286957,622.827881 418.393646,622.736511 
	C417.345947,620.341675 416.370239,617.911316 415.216766,615.568542 
	C414.722076,614.563904 413.375641,613.809265 413.236908,612.825317 
	C412.052124,604.420288 410.972137,595.997375 410.097260,587.555298 
	C409.971832,586.344971 410.767059,584.580322 411.727631,583.803345 
	C414.470978,581.584351 417.519165,579.742188 420.857422,577.473206 
	C420.365112,576.555908 419.696136,575.309448 419.027161,574.062988 
	C429.408234,571.023438 439.803589,568.031250 450.159729,564.909058 
	C452.582458,564.178650 454.872253,563.007263 457.785583,562.330444 
	C459.466217,563.445190 460.584503,564.268188 462.132233,565.407166 
	C460.814178,566.093506 460.011017,566.546570 459.178955,566.938232 
	C456.886047,568.017517 454.634064,569.212402 452.268311,570.101929 
	C448.689789,571.447266 449.581268,574.365540 449.371704,577.069824 
	C449.249329,578.649292 448.302460,580.150269 447.849335,581.721985 
	C447.175903,584.057922 446.162598,586.408508 446.074219,588.781921 
	C445.568970,602.351318 452.276886,612.657471 461.820343,621.316223 
	C464.016022,623.308350 467.496063,623.992920 470.487823,624.961914 
	C472.509125,625.616577 474.742615,625.591064 476.814575,626.127197 
	C477.581604,626.325745 478.617981,627.211487 478.687653,627.872742 
	C478.752686,628.489807 477.700134,629.813721 477.136322,629.815491 
	C472.307373,629.830688 473.603088,632.950623 474.008240,635.654358 
z"/>
<path fill="#148A77" opacity="1.000000" stroke="none" 
	d="
M553.992798,609.883545 
	C549.609741,611.585938 545.262878,613.390320 540.834229,614.964600 
	C535.494019,616.863037 530.102417,618.623779 524.693359,620.317444 
	C523.145386,620.802124 521.460083,620.848022 519.359375,620.686523 
	C516.774963,616.187927 512.972839,618.710693 510.008484,617.628845 
	C511.202789,615.391479 512.279907,613.443481 513.605408,611.682434 
	C514.881897,609.986511 517.283875,608.670898 517.673706,606.861206 
	C518.883606,601.244385 522.316223,595.936768 520.521179,589.819458 
	C519.022095,584.711060 518.301025,579.188477 515.840820,574.596436 
	C512.954895,569.209778 508.552734,564.637268 504.823273,559.700195 
	C500.683136,554.219421 499.738525,554.112671 493.539612,556.627625 
	C491.178864,557.585388 488.411987,557.889282 485.847595,557.822571 
	C484.856720,557.796814 483.914062,555.917175 482.949463,554.882141 
	C486.660248,553.901733 490.371002,552.921387 494.952240,551.966064 
	C498.511658,551.984802 501.200592,551.978455 503.889557,551.972107 
	C503.889557,551.972107 503.978729,551.996094 504.019775,552.431824 
	C505.131073,553.576843 506.151093,554.788818 507.281036,554.901917 
	C510.774872,555.251465 513.895996,555.570496 517.358582,557.318054 
	C520.298645,558.801941 525.049988,556.697083 528.999878,556.180176 
	C535.435608,557.322327 541.890564,558.367615 548.301147,559.636902 
	C553.541077,560.674438 558.728088,561.979248 563.596924,563.566589 
	C558.703430,563.967651 554.151611,563.967651 550.247742,563.967651 
	C551.543518,579.854370 552.768188,594.868958 553.992798,609.883545 
z"/>
<path fill="#128573" opacity="1.000000" stroke="none" 
	d="
M573.005066,425.980621 
	C573.420837,424.696838 573.464294,422.676208 574.312256,422.247650 
	C580.270508,419.236328 580.821350,418.059479 578.464539,411.569489 
	C578.188049,410.808228 577.749878,409.687073 578.078369,409.188354 
	C582.205078,402.923035 577.346741,397.256622 576.784424,391.359680 
	C576.440063,387.748322 574.573364,384.136566 572.809082,380.835663 
	C568.767517,373.273865 569.405334,372.043457 578.994507,372.000214 
	C581.696899,372.441650 583.529480,373.153656 585.399597,373.272125 
	C590.606689,373.602081 595.829468,373.685638 601.046021,373.866516 
	C603.435425,374.220978 605.824768,374.575409 608.590332,375.421448 
	C607.686340,377.358521 605.330933,378.792725 605.315552,380.251526 
	C605.255249,385.986237 606.041931,391.723633 606.304932,397.469574 
	C606.598022,403.872498 608.464661,410.609924 602.775269,416.250916 
	C601.695618,417.581451 600.838989,418.666321 599.982361,419.751221 
	C599.234558,419.831268 598.486816,419.911316 597.123779,419.740723 
	C593.902893,419.219818 591.432739,419.185822 590.977295,422.663422 
	C589.601440,422.796326 588.225586,422.929230 586.171753,422.782288 
	C582.328613,421.706268 579.501343,421.569092 578.943420,425.859711 
	C578.943420,425.859711 578.934692,425.922272 578.489929,425.942322 
	C576.365112,425.968445 574.685120,425.974518 573.005066,425.980621 
z"/>
<path fill="#117D6F" opacity="1.000000" stroke="none" 
	d="
M418.657471,574.093506 
	C419.696136,575.309448 420.365112,576.555908 420.857422,577.473206 
	C417.519165,579.742188 414.470978,581.584351 411.727631,583.803345 
	C410.767059,584.580322 409.971832,586.344971 410.097260,587.555298 
	C410.972137,595.997375 412.052124,604.420288 413.236908,612.825317 
	C413.375641,613.809265 414.722076,614.563904 415.216766,615.568542 
	C416.370239,617.911316 417.345947,620.341675 418.393646,622.736511 
	C415.286957,622.827881 411.583588,624.044983 409.195984,622.779541 
	C403.991699,620.021301 398.927063,621.185303 393.741669,621.504761 
	C393.489258,621.520264 393.285034,622.318054 393.027771,623.129333 
	C386.013702,621.948730 379.030243,620.390442 372.354187,618.439331 
	C376.594879,618.613281 380.528137,619.179993 384.448883,619.709961 
	C384.436371,619.673157 384.374939,619.717102 384.748108,619.461060 
	C391.931519,618.595276 392.486176,614.274719 392.114258,608.586060 
	C391.628601,601.157715 391.995331,593.673706 391.995331,585.591125 
	C391.508362,585.183167 390.279327,584.153503 389.050293,583.123901 
	C396.576172,581.075134 404.123505,579.100403 411.615143,576.933350 
	C413.917572,576.267273 416.067810,575.075195 418.657471,574.093506 
z"/>
<path fill="#0C6B64" opacity="1.000000" stroke="none" 
	d="
M388.647095,583.109680 
	C390.279327,584.153503 391.508362,585.183167 391.995331,585.591125 
	C391.995331,593.673706 391.628601,601.157715 392.114258,608.586060 
	C392.486176,614.274719 391.931519,618.595276 384.777130,619.446228 
	C384.432953,619.687500 384.461395,619.746765 384.461395,619.746765 
	C380.528137,619.179993 376.594879,618.613281 372.178223,618.116943 
	C370.331940,617.834473 368.969086,617.481689 367.253632,617.011658 
	C364.635956,613.513611 361.376953,610.418945 360.304504,606.694641 
	C357.763763,597.871277 365.155762,590.564148 372.932861,587.984802 
	C378.017731,586.298340 383.138977,584.721436 388.647095,583.109680 
z"/>
<path fill="#0B5D5B" opacity="1.000000" stroke="none" 
	d="
M600.146973,571.634644 
	C601.439636,575.261047 602.908813,578.536133 603.554382,581.966248 
	C604.740051,588.265930 603.185242,593.823547 596.867126,596.622375 
	C591.336426,599.072327 585.523254,600.884521 579.357361,602.570679 
	C578.271545,600.466736 577.179443,598.782227 577.137756,597.072205 
	C576.945129,589.167114 576.884094,581.248230 577.215271,573.352661 
	C577.264038,572.189636 579.546448,570.911865 581.016113,570.074463 
	C582.540344,569.205933 584.332764,568.808289 586.007935,568.204590 
	C590.655945,569.254150 595.304016,570.303711 600.146973,571.634644 
z"/>
<path fill="#117D6F" opacity="1.000000" stroke="none" 
	d="
M455.604462,387.098816 
	C454.422699,388.528961 452.827606,389.922668 451.422516,391.150360 
	C451.891541,394.626892 452.782257,398.581543 452.889069,402.557190 
	C453.131592,411.584198 452.816345,420.626648 453.081238,429.652405 
	C453.198608,433.652069 452.133698,435.670502 447.015717,434.998474 
	C442.809875,434.906189 439.458160,434.819458 436.106415,434.732758 
	C435.004608,434.610657 433.902771,434.488556 432.415222,433.931885 
	C432.009796,432.988770 431.990082,432.480286 432.147827,431.668518 
	C435.401733,428.858032 436.002350,425.622711 436.134888,421.728455 
	C436.461487,412.131500 434.231964,402.335022 438.004669,392.963623 
	C443.733490,390.996521 449.462311,389.029419 455.604462,387.098816 
z"/>
<path fill="#0C6B64" opacity="1.000000" stroke="none" 
	d="
M437.584930,392.945129 
	C434.231964,402.335022 436.461487,412.131500 436.134888,421.728455 
	C436.002350,425.622711 435.401733,428.858032 431.701355,431.666473 
	C427.516937,431.775421 423.956390,431.583160 420.395874,431.390930 
	C420.395874,431.390930 420.116150,431.417389 419.997742,430.944214 
	C418.920197,429.994141 417.961029,429.517242 416.651428,429.013916 
	C414.569153,429.011169 412.837311,429.034851 411.105469,429.058563 
	C410.839233,428.971832 410.572968,428.885101 409.969910,428.403992 
	C409.633179,428.009644 409.258881,427.821960 409.258881,427.821960 
	C409.258881,427.821960 409.014282,427.459290 409.315369,427.202576 
	C410.416199,426.748413 411.224884,426.349945 412.014343,426.385040 
	C418.918854,426.691650 419.886414,425.858063 419.992798,418.985199 
	C420.064575,414.347290 420.026489,409.707275 420.000610,405.068420 
	C419.983032,401.920166 419.359009,398.469238 424.418304,398.738739 
	C424.915375,398.765198 425.504761,397.058960 426.051331,396.156952 
	C429.755951,395.080200 433.460571,394.003418 437.584930,392.945129 
z"/>
<path fill="#117D6F" opacity="1.000000" stroke="none" 
	d="
M602.998230,416.005249 
	C608.464661,410.609924 606.598022,403.872498 606.304932,397.469574 
	C606.041931,391.723633 605.255249,385.986237 605.315552,380.251526 
	C605.330933,378.792725 607.686340,377.358521 608.985840,375.541931 
	C616.868042,376.897003 624.730896,378.623199 632.225952,380.694489 
	C628.534668,381.032745 625.184509,380.790070 621.904175,381.162323 
	C620.916016,381.274475 619.367065,383.093750 619.364624,384.134064 
	C619.351074,389.751038 620.114075,395.384186 619.885132,400.982147 
	C619.677979,406.049316 619.817871,410.315247 626.087341,411.179260 
	C623.698669,411.815186 621.309937,412.451141 618.125366,413.052673 
	C614.875427,414.248352 612.421448,415.478455 609.967468,416.708557 
	C608.918762,416.823822 607.870056,416.939087 606.205811,416.796997 
	C604.726318,416.361481 603.862244,416.183380 602.998230,416.005249 
z"/>
<path fill="#0C6B64" opacity="1.000000" stroke="none" 
	d="
M626.472534,411.131714 
	C619.817871,410.315247 619.677979,406.049316 619.885132,400.982147 
	C620.114075,395.384186 619.351074,389.751038 619.364624,384.134064 
	C619.367065,383.093750 620.916016,381.274475 621.904175,381.162323 
	C625.184509,380.790070 628.534668,381.032745 632.306396,381.025940 
	C633.044312,381.295898 633.333862,381.579468 633.909058,381.980835 
	C642.664673,386.857880 644.378784,390.098785 642.668274,399.358643 
	C642.318054,401.254517 640.726624,402.921082 639.018677,404.861755 
	C635.534790,406.925659 632.739563,408.821198 629.944275,410.716736 
	C628.915405,410.839203 627.886536,410.961700 626.472534,411.131714 
z"/>
<path fill="#0C6B64" opacity="1.000000" stroke="none" 
	d="
M585.609070,568.138000 
	C584.332764,568.808289 582.540344,569.205933 581.016113,570.074463 
	C579.546448,570.911865 577.264038,572.189636 577.215271,573.352661 
	C576.884094,581.248230 576.945129,589.167114 577.137756,597.072205 
	C577.179443,598.782227 578.271545,600.466736 578.932739,602.541016 
	C574.602478,604.286194 570.219299,605.653320 565.170410,606.747314 
	C564.013794,594.492737 563.401184,582.513184 563.226807,570.527161 
	C563.210022,569.375549 565.783569,567.923218 567.400208,567.082520 
	C569.117310,566.189575 571.127014,565.859314 573.008972,565.283264 
	C577.076050,566.212646 581.143127,567.142029 585.609070,568.138000 
z"/>
<path fill="#117D6F" opacity="1.000000" stroke="none" 
	d="
M572.613403,565.180481 
	C571.127014,565.859314 569.117310,566.189575 567.400208,567.082520 
	C565.783569,567.923218 563.210022,569.375549 563.226807,570.527161 
	C563.401184,582.513184 564.013794,594.492737 564.778809,606.755310 
	C561.638245,608.016418 558.223633,608.996277 554.400940,609.929810 
	C552.768188,594.868958 551.543518,579.854370 550.247742,563.967651 
	C554.151611,563.967651 558.703430,563.967651 563.733398,563.916321 
	C566.880371,564.269226 569.549072,564.673462 572.613403,565.180481 
z"/>
<path fill="#14907A" opacity="1.000000" stroke="none" 
	d="
M451.314636,438.025757 
	C456.929840,438.049042 462.761841,438.263123 468.574707,438.720184 
	C470.132324,438.842621 471.594666,439.908630 473.163971,440.194977 
	C480.505371,441.534454 487.887939,442.654877 495.211121,444.082764 
	C497.059509,444.443176 498.743317,445.647766 500.750183,446.722717 
	C500.367249,447.310181 499.699310,447.971619 499.113617,447.905365 
	C497.453705,447.717651 495.827393,447.232269 493.831970,446.910095 
	C483.949463,444.921814 474.429199,442.857208 464.893494,440.866730 
	C460.452515,439.939667 455.981567,439.156250 451.314636,438.025757 
z"/>
<path fill="#14907A" opacity="1.000000" stroke="none" 
	d="
M427.185181,630.295410 
	C428.358246,629.366821 429.728638,628.724915 430.400085,628.410400 
	C441.472931,630.461060 452.259888,632.458740 463.046875,634.456482 
	C464.520233,636.248474 466.221985,630.480286 467.960571,635.753296 
	C465.316101,637.040771 462.632782,637.993042 459.539307,638.933594 
	C457.514801,637.962646 456.005402,636.483826 454.268066,636.132629 
	C446.069031,634.475159 437.804352,633.144165 429.573792,631.638000 
	C428.804749,631.497192 428.111115,630.943909 427.185181,630.295410 
z"/>
<path fill="#14907A" opacity="1.000000" stroke="none" 
	d="
M576.077026,368.584198 
	C565.271301,369.479065 554.770081,367.839417 545.072998,361.692413 
	C545.494446,360.864716 546.042725,360.350159 546.725464,359.695374 
	C547.261475,362.568817 549.466492,362.508331 551.844360,362.967773 
	C559.899902,364.524231 567.880188,366.470276 576.077026,368.584198 
z"/>
<path fill="#14907A" opacity="1.000000" stroke="none" 
	d="
M528.638428,555.990356 
	C525.049988,556.697083 520.298645,558.801941 517.358582,557.318054 
	C513.895996,555.570496 510.774872,555.251465 507.281036,554.901917 
	C506.151093,554.788818 505.131073,553.576843 504.048615,552.467896 
	C505.358582,552.046753 506.680725,552.025269 508.384094,551.946167 
	C515.269226,553.192566 521.773132,554.496521 528.638428,555.990356 
z"/>
<path fill="#14907A" opacity="1.000000" stroke="none" 
	d="
M600.813293,373.564087 
	C595.829468,373.685638 590.606689,373.602081 585.399597,373.272125 
	C583.529480,373.153656 581.696899,372.441650 579.423645,371.999634 
	C578.999451,371.272797 578.998840,370.546844 578.999084,369.457947 
	C584.453186,370.090332 589.909790,371.068115 595.357849,372.091034 
	C597.110229,372.420044 598.840271,372.868103 600.813293,373.564087 
z"/>
<path fill="#14907A" opacity="1.000000" stroke="none" 
	d="
M436.396057,434.930481 
	C439.458160,434.819458 442.809875,434.906189 446.581421,435.001343 
	C447.006348,435.525757 447.011444,436.041779 447.028595,436.814636 
	C443.588989,436.423767 440.137360,435.775970 436.396057,434.930481 
z"/>
<path fill="#14907A" opacity="1.000000" stroke="none" 
	d="
M420.668152,431.622223 
	C423.956390,431.583160 427.516937,431.775421 431.523926,431.969727 
	C431.990082,432.480286 432.009796,432.988770 432.042328,433.749939 
	C428.350250,433.286285 424.645355,432.569916 420.668152,431.622223 
z"/>
<path fill="#14907A" opacity="1.000000" stroke="none" 
	d="
M411.189880,429.366364 
	C412.837311,429.034851 414.569153,429.011169 416.653137,429.321777 
	C416.995453,430.067474 416.985596,430.478821 416.975769,430.890198 
	C415.075256,430.484863 413.174774,430.079498 411.189880,429.366364 
z"/>
<path fill="#117D6F" opacity="1.000000" stroke="none" 
	d="
M417.326263,431.045898 
	C416.985596,430.478821 416.995453,430.067474 417.003571,429.348206 
	C417.961029,429.517242 418.920197,429.994141 419.922577,430.825531 
	C419.202789,431.187195 418.439758,431.194366 417.326263,431.045898 
z"/>
<path fill="#14907A" opacity="1.000000" stroke="none" 
	d="
M409.204773,427.884308 
	C409.258881,427.821960 409.633179,428.009644 409.698792,428.083191 
	C409.764435,428.156708 409.444641,428.199188 409.290039,428.155151 
	C409.135437,428.111084 409.150635,427.946655 409.204773,427.884308 
z"/>
<path fill="#14907A" opacity="1.000000" stroke="none" 
	d="
M510.000000,618.000000 
	C512.972839,618.710693 516.774963,616.187927 518.944092,620.662048 
	C512.834778,623.079773 506.676392,625.157471 500.484558,627.130005 
	C496.799408,628.303955 493.018951,629.186401 489.357819,630.425842 
	C484.451111,632.086914 479.618408,633.966492 474.381104,635.703369 
	C473.603088,632.950623 472.307373,629.830688 477.136322,629.815491 
	C477.700134,629.813721 478.752686,628.489807 478.687653,627.872742 
	C478.617981,627.211487 477.581604,626.325745 476.814575,626.127197 
	C474.742615,625.591064 472.509125,625.616577 470.487823,624.961914 
	C467.496063,623.992920 464.016022,623.308350 461.820343,621.316223 
	C452.276886,612.657471 445.568970,602.351318 446.074219,588.781921 
	C446.162598,586.408508 447.175903,584.057922 447.849335,581.721985 
	C448.302460,580.150269 449.249329,578.649292 449.371704,577.069824 
	C449.581268,574.365540 448.689789,571.447266 452.268311,570.101929 
	C454.634064,569.212402 456.886047,568.017517 459.178955,566.938232 
	C460.011017,566.546570 460.814178,566.093506 462.132233,565.407166 
	C460.584503,564.268188 459.466217,563.445190 458.181396,562.331299 
	C463.415710,561.136169 467.878632,557.217224 473.866943,557.713257 
	C476.521149,557.933228 479.358765,555.938843 482.531311,554.915894 
	C483.914062,555.917175 484.856720,557.796814 485.847595,557.822571 
	C488.411987,557.889282 491.178864,557.585388 493.539612,556.627625 
	C499.738525,554.112671 500.683136,554.219421 504.823273,559.700195 
	C508.552734,564.637268 512.954895,569.209778 515.840820,574.596436 
	C518.301025,579.188477 519.022095,584.711060 520.521179,589.819458 
	C522.316223,595.936768 518.883606,601.244385 517.673706,606.861206 
	C517.283875,608.670898 514.881897,609.986511 513.605408,611.682434 
	C512.279907,613.443481 511.202789,615.391479 509.594849,617.628906 
	C507.233185,618.311401 505.293671,618.622803 503.354156,618.934143 
	C503.489624,619.453918 503.625122,619.973755 503.760620,620.493530 
	C506.331726,621.097656 509.029236,622.071045 510.000000,618.000000 
z"/>
<path fill="#14907A" opacity="1.000000" stroke="none" 
	d="
M531.363892,440.855957 
	C529.769470,439.876007 528.560486,438.147644 527.345398,438.143372 
	C522.721680,438.127106 518.096802,438.678680 513.470825,438.996338 
	C509.670380,439.257324 506.668518,438.042908 504.678864,434.555817 
	C503.956512,433.289795 502.910065,431.894012 501.658661,431.296478 
	C494.530365,427.892731 492.166626,421.836334 491.263123,414.506836 
	C490.300476,406.697479 489.583344,399.250061 493.880707,391.899567 
	C497.309265,386.035065 502.014343,382.066162 508.142731,380.092163 
	C516.186035,377.501373 524.589111,375.460449 532.859375,379.031311 
	C539.000244,381.682678 547.071472,381.993622 548.925110,390.712891 
	C549.084167,391.460785 549.779480,392.122284 550.302368,392.761078 
	C556.789490,400.686554 557.739685,408.785126 552.701477,417.477631 
	C549.798706,422.485748 548.777832,428.843658 542.869141,431.864990 
	C542.380066,432.115082 542.357971,433.278412 541.979797,434.447205 
	C544.422363,434.447205 546.437317,434.447205 548.702026,434.683228 
	C547.946472,440.450592 543.533325,436.828430 540.424500,437.536560 
	C538.217712,433.652588 535.381348,433.560608 532.236328,436.972198 
	C533.863464,437.334198 535.442871,437.685577 537.022278,438.036987 
	C535.263672,438.991089 533.505127,439.945190 531.363892,440.855957 
z"/>
<path fill="#14907A" opacity="1.000000" stroke="none" 
	d="
M561.408813,431.841217 
	C562.245239,426.856567 566.557617,429.462952 569.647949,428.620239 
	C568.424316,433.058563 564.773499,431.531403 561.408813,431.841217 
z"/>
<path fill="#117D6F" opacity="1.000000" stroke="none" 
	d="
M630.334839,410.784485 
	C632.739563,408.821198 635.534790,406.925659 638.709106,405.037140 
	C637.744263,409.058868 634.647095,410.549133 630.334839,410.784485 
z"/>
<path fill="#14907A" opacity="1.000000" stroke="none" 
	d="
M503.863586,551.586182 
	C501.200592,551.978455 498.511658,551.984802 495.365295,551.976318 
	C496.636261,548.234924 500.806061,547.879395 503.863586,551.586182 
z"/>
<path fill="#148A77" opacity="1.000000" stroke="none" 
	d="
M579.356689,425.897766 
	C579.501343,421.569092 582.328613,421.706268 585.755981,422.765503 
	C585.335144,427.005676 582.165649,425.639160 579.356689,425.897766 
z"/>
<path fill="#148A77" opacity="1.000000" stroke="none" 
	d="
M610.373779,416.789490 
	C612.421448,415.478455 614.875427,414.248352 617.735840,413.045105 
	C617.300598,417.463196 613.729004,416.563385 610.373779,416.789490 
z"/>
<path fill="#148A77" opacity="1.000000" stroke="none" 
	d="
M537.394287,438.041443 
	C535.442871,437.685577 533.863464,437.334198 532.236328,436.972198 
	C535.381348,433.560608 538.217712,433.652588 539.980042,437.506714 
	C539.247498,437.925781 538.506897,437.985870 537.394287,438.041443 
z"/>
<path fill="#14907A" opacity="1.000000" stroke="none" 
	d="
M573.000977,426.319244 
	C574.685120,425.974518 576.365112,425.968445 578.459473,425.950592 
	C578.927124,429.988037 575.900024,428.587585 573.381836,428.738556 
	C572.980591,427.996216 572.988708,427.327026 573.000977,426.319244 
z"/>
<path fill="#148A77" opacity="1.000000" stroke="none" 
	d="
M591.348999,422.730621 
	C591.432739,419.185822 593.902893,419.219818 596.746948,419.732910 
	C595.230469,420.916443 593.475586,421.857147 591.348999,422.730621 
z"/>
<path fill="#148A77" opacity="1.000000" stroke="none" 
	d="
M602.775269,416.250916 
	C603.862244,416.183380 604.726318,416.361481 605.809082,416.796143 
	C604.262146,417.986938 602.496460,418.921173 600.356567,419.803345 
	C600.838989,418.666321 601.695618,417.581451 602.775269,416.250916 
z"/>
<path fill="#14907A" opacity="1.000000" stroke="none" 
	d="
M522.355103,443.796631 
	C522.355713,440.160492 524.881958,440.237885 527.754578,440.743347 
	C526.238831,441.940918 524.484070,442.893311 522.355103,443.796631 
z"/>
<path fill="#14907A" opacity="1.000000" stroke="none" 
	d="
M552.391724,434.795898 
	C552.120300,430.845398 555.118958,432.326630 557.557983,431.988037 
	C557.928650,435.976837 554.917786,434.608337 552.391724,434.795898 
z"/>
<path fill="#14907A" opacity="1.000000" stroke="none" 
	d="
M510.412048,446.931030 
	C511.786438,445.944336 513.574219,444.984314 515.761292,444.046936 
	C515.958984,447.945007 512.982910,446.695343 510.412048,446.931030 
z"/>
<path fill="#0B5D5B" opacity="1.000000" stroke="none" 
	d="
M425.635986,396.120758 
	C425.504761,397.058960 424.915375,398.765198 424.418304,398.738739 
	C419.359009,398.469238 419.983032,401.920166 420.000610,405.068420 
	C420.026489,409.707275 420.064575,414.347290 419.992798,418.985199 
	C419.886414,425.858063 418.918854,426.691650 412.014343,426.385040 
	C411.224884,426.349945 410.416199,426.748413 409.239380,426.997437 
	C399.673370,423.172882 400.288544,410.091003 406.122467,404.449249 
	C411.451141,399.296173 418.294006,397.592926 425.635986,396.120758 
z"/>
<path fill="#B5FFF2" opacity="1.000000" stroke="none" 
	d="
M384.448883,619.709961 
	C384.461395,619.746765 384.432953,619.687500 384.403931,619.702271 
	C384.374939,619.717102 384.436371,619.673157 384.448883,619.709961 
z"/>
<path fill="#148A77" opacity="1.000000" stroke="none" 
	d="
M509.586365,618.000000 
	C509.029236,622.071045 506.331726,621.097656 503.760620,620.493530 
	C503.625122,619.973755 503.489624,619.453918 503.354156,618.934143 
	C505.293671,618.622803 507.233185,618.311401 509.586365,618.000000 
z"/>
</svg>