<svg version="1.1" id="Layer_1" xmlns="http://www.w3.org/2000/svg" xmlns:xlink="http://www.w3.org/1999/xlink" x="0px" y="0px"
	 width="100%" viewBox="7 10.7 234 200.69"   xml:space="preserve">
<path fill="" opacity="0" stroke="none" 
	d="
M145.000000,217.000000 
	C96.666672,217.000000 48.833340,217.000000 1.000006,217.000000 
	C1.000004,145.000000 1.000004,73.000015 1.000002,1.000016 
	C81.666656,1.000011 162.333313,1.000011 242.999969,1.000005 
	C242.999985,72.999985 242.999985,144.999969 243.000000,216.999969 
	C210.500000,217.000000 178.000000,217.000000 145.000000,217.000000 
M140.242050,210.629578 
	C141.568542,210.743927 142.894943,210.956909 144.221542,210.958145 
	C175.214386,210.986832 206.207245,210.992905 237.200104,211.000641 
	C237.866043,211.000809 238.669205,211.199081 239.165054,210.900681 
	C239.871170,210.475662 240.792557,209.684082 240.804626,209.033890 
	C240.816711,208.384109 239.925186,207.315948 239.247314,207.141922 
	C237.992783,206.819855 236.605133,206.999405 235.272934,206.999252 
	C206.279480,206.995956 177.286011,206.999527 148.292557,206.995560 
	C132.771118,206.993439 125.008575,199.221329 125.006104,183.648788 
	C124.998360,134.993103 125.013321,86.337410 124.997658,37.681721 
	C124.992134,20.512251 115.548141,11.014104 98.481987,11.002462 
	C69.155273,10.982457 39.828548,10.995631 10.501833,11.000665 
	C9.170447,11.000894 7.805292,10.895663 6.523123,11.162604 
	C5.952947,11.281314 5.105940,12.265549 5.172872,12.747440 
	C5.279884,13.517914 5.918615,14.639628 6.557135,14.820631 
	C7.797290,15.172179 9.193335,14.999252 10.524804,14.999479 
	C39.518261,15.004409 68.511726,14.993135 97.505180,15.007293 
	C113.371002,15.015040 120.993340,22.714993 120.995033,38.705666 
	C121.000206,87.694618 120.974754,136.683578 121.013748,185.672501 
	C121.023827,198.337234 127.527008,206.926758 140.242050,210.629578 
z"/>
<path fill="currentColor" opacity="1.000000" stroke="none" 
	d="
M139.839203,210.496002 
	C127.527008,206.926758 121.023827,198.337234 121.013748,185.672501 
	C120.974754,136.683578 121.000206,87.694618 120.995033,38.705666 
	C120.993340,22.714993 113.371002,15.015040 97.505180,15.007293 
	C68.511726,14.993135 39.518261,15.004409 10.524804,14.999479 
	C9.193335,14.999252 7.797290,15.172179 6.557135,14.820631 
	C5.918615,14.639628 5.279884,13.517914 5.172872,12.747440 
	C5.105940,12.265549 5.952947,11.281314 6.523123,11.162604 
	C7.805292,10.895663 9.170447,11.000894 10.501833,11.000665 
	C39.828548,10.995631 69.155273,10.982457 98.481987,11.002462 
	C115.548141,11.014104 124.992134,20.512251 124.997658,37.681721 
	C125.013321,86.337410 124.998360,134.993103 125.006104,183.648788 
	C125.008575,199.221329 132.771118,206.993439 148.292557,206.995560 
	C177.286011,206.999527 206.279480,206.995956 235.272934,206.999252 
	C236.605133,206.999405 237.992783,206.819855 239.247314,207.141922 
	C239.925186,207.315948 240.816711,208.384109 240.804626,209.033890 
	C240.792557,209.684082 239.871170,210.475662 239.165054,210.900681 
	C238.669205,211.199081 237.866043,211.000809 237.200104,211.000641 
	C206.207245,210.992905 175.214386,210.986832 144.221542,210.958145 
	C142.894943,210.956909 141.568542,210.743927 139.839203,210.496002 
z"/>
</svg>