<svg version="1.1" id="Layer_1" xmlns="http://www.w3.org/2000/svg" xmlns:xlink="http://www.w3.org/1999/xlink" x="0px" y="0px"
	 width="100%" viewBox="0 0 500 499" enable-background="new 0 0 500 499" xml:space="preserve">
<path fill="#005CB9" opacity="1.000000" stroke="none" 
	d="
M501.000000,2.000000 
	C501.000000,2.000000 501.000000,2.500000 500.775696,3.097410 
	C500.367676,5.333591 500.023285,6.972337 500.023041,8.611138 
	C499.998596,169.812973 499.996674,331.014801 500.041626,492.216644 
	C500.042145,494.144531 500.666718,496.072205 501.000000,498.000000 
	C501.000000,498.000000 501.000000,498.500000 500.537354,498.748718 
	C333.716461,498.998322 167.358231,498.999146 1.000000,499.000000 
	C1.000000,499.000000 1.000000,498.500000 1.224110,497.902496 
	C1.632079,495.666229 1.976707,494.027527 1.976957,492.388733 
	C2.001586,331.186951 2.003591,169.985138 1.958804,8.783356 
	C1.958268,6.855482 1.333424,4.927782 1.000000,3.000000 
	C1.000000,3.000000 1.000000,2.500000 1.462638,2.251152 
	C168.283524,2.001535 334.641754,2.000768 501.000000,2.000000 
M279.477966,142.512222 
	C260.043762,135.438660 240.545868,134.858688 220.227493,142.020477 
	C192.315994,152.507339 174.258987,172.152252 165.689209,200.643051 
	C163.787994,206.963745 166.716827,212.994797 172.769119,214.972656 
	C178.633926,216.889252 184.866074,213.466736 186.878922,207.300278 
	C187.908493,204.146118 188.950226,200.985168 190.206512,197.917404 
	C203.327423,165.877563 244.240921,150.182053 275.508911,165.025558 
	C293.327728,173.484482 305.162598,187.023605 311.135803,205.775787 
	C313.534729,213.306824 319.397034,216.866089 325.778320,214.747025 
	C332.102417,212.646942 334.929382,206.186005 332.107117,198.779694 
	C329.517670,191.984375 326.870758,185.069046 323.133514,178.880295 
	C312.959686,162.032684 298.880768,149.543015 279.477966,142.512222 
M310.604675,335.185455 
	C317.744049,308.180298 324.885651,281.175751 332.020782,254.169479 
	C333.377869,249.032944 331.981110,247.195786 326.591583,247.093338 
	C323.593140,247.036346 320.554077,247.390381 317.601501,247.018356 
	C311.989044,246.311188 309.606659,248.786041 308.361877,254.119507 
	C302.691772,278.414276 296.719940,302.638824 290.806763,326.876465 
	C290.257111,329.129364 289.356659,331.296722 288.619110,333.503784 
	C286.329651,329.288696 285.123199,325.229645 284.028320,321.140717 
	C277.962524,298.487671 271.876465,275.839813 265.917450,253.158615 
	C264.776520,248.816040 262.664124,246.672180 257.864532,246.998322 
	C252.390701,247.370270 246.836319,247.475494 241.382874,246.976288 
	C235.677139,246.453964 233.405670,249.003983 232.083496,254.153854 
	C226.128738,277.347443 219.929916,300.478516 213.783005,323.622528 
	C212.876373,327.036163 211.776352,330.398438 210.350693,335.175293 
	C209.259857,332.622559 208.603287,331.529816 208.315460,330.347290 
	C202.141510,304.982422 195.961716,279.618774 189.900574,254.226852 
	C188.337662,247.679321 187.825836,247.083405 180.863998,247.084167 
	C177.531189,247.084534 174.194687,246.988724 170.866501,247.113586 
	C166.491699,247.277725 165.005493,249.366287 166.140610,253.660934 
	C169.453766,266.196106 172.829605,278.714722 176.143372,291.249725 
	C181.628418,311.997986 187.095825,332.750885 192.545776,353.508392 
	C194.409531,360.607025 194.851578,360.996246 201.955826,360.998505 
	C206.455109,360.999969 210.954407,360.998535 215.453690,360.998535 
	C223.735703,360.998505 223.942551,360.727020 226.095078,352.473969 
	C233.019638,325.924561 240.016632,299.393951 247.024673,272.866425 
	C247.308060,271.793732 247.986877,270.825470 248.968216,268.807648 
	C249.721817,271.106750 250.113907,272.154022 250.409927,273.227783 
	C257.923950,300.484375 265.490173,327.726898 272.868164,355.020294 
	C274.006348,359.230743 276.011841,361.234436 280.502960,361.058014 
	C286.492767,360.822693 292.500977,360.900238 298.496948,361.036133 
	C302.054932,361.116730 304.105347,359.664856 304.977478,356.204559 
	C306.683807,349.434723 308.518372,342.697174 310.604675,335.185455 
z"/>
<path fill="#0C64BD" opacity="1.000000" stroke="none" 
	d="
M501.000000,1.500000 
	C334.641754,2.000768 168.283524,2.001535 1.462638,2.001152 
	C2.333333,1.666667 3.665965,1.045924 5.000104,1.042664 
	C28.999962,0.984023 53.000000,1.000000 77.000000,1.000000 
	C218.333328,1.000000 359.666656,1.000000 501.000000,1.500000 
z"/>
<path fill="#0C64BD" opacity="1.000000" stroke="none" 
	d="
M1.000000,499.500000 
	C167.358231,498.999146 333.716461,498.998322 500.537354,498.998749 
	C499.666687,499.333374 498.334045,499.954102 496.999908,499.957336 
	C473.000031,500.015961 449.000000,500.000000 425.000000,500.000000 
	C283.666656,500.000000 142.333328,500.000000 1.000000,499.500000 
z"/>
<path fill="#0C64BD" opacity="1.000000" stroke="none" 
	d="
M1.000000,3.468657 
	C1.333424,4.927782 1.958268,6.855482 1.958804,8.783356 
	C2.003591,169.985138 2.001586,331.186951 1.976957,492.388733 
	C1.976707,494.027527 1.632079,495.666229 1.224110,497.652496 
	C1.000000,333.312439 1.000000,168.624878 1.000000,3.468657 
z"/>
<path fill="#0C64BD" opacity="1.000000" stroke="none" 
	d="
M501.000000,497.531342 
	C500.666718,496.072205 500.042145,494.144531 500.041626,492.216644 
	C499.996674,331.014801 499.998596,169.812973 500.023041,8.611138 
	C500.023285,6.972337 500.367676,5.333591 500.775696,3.347410 
	C501.000000,167.687561 501.000000,332.375122 501.000000,497.531342 
z"/>
<path fill="#FBFDFE" opacity="1.000000" stroke="none" 
	d="
M310.452271,335.565857 
	C308.518372,342.697174 306.683807,349.434723 304.977478,356.204559 
	C304.105347,359.664856 302.054932,361.116730 298.496948,361.036133 
	C292.500977,360.900238 286.492767,360.822693 280.502960,361.058014 
	C276.011841,361.234436 274.006348,359.230743 272.868164,355.020294 
	C265.490173,327.726898 257.923950,300.484375 250.409927,273.227783 
	C250.113907,272.154022 249.721817,271.106750 248.968216,268.807648 
	C247.986877,270.825470 247.308060,271.793732 247.024673,272.866425 
	C240.016632,299.393951 233.019638,325.924561 226.095078,352.473969 
	C223.942551,360.727020 223.735703,360.998505 215.453690,360.998535 
	C210.954407,360.998535 206.455109,360.999969 201.955826,360.998505 
	C194.851578,360.996246 194.409531,360.607025 192.545776,353.508392 
	C187.095825,332.750885 181.628418,311.997986 176.143372,291.249725 
	C172.829605,278.714722 169.453766,266.196106 166.140610,253.660934 
	C165.005493,249.366287 166.491699,247.277725 170.866501,247.113586 
	C174.194687,246.988724 177.531189,247.084534 180.863998,247.084167 
	C187.825836,247.083405 188.337662,247.679321 189.900574,254.226852 
	C195.961716,279.618774 202.141510,304.982422 208.315460,330.347290 
	C208.603287,331.529816 209.259857,332.622559 210.350693,335.175293 
	C211.776352,330.398438 212.876373,327.036163 213.783005,323.622528 
	C219.929916,300.478516 226.128738,277.347443 232.083496,254.153854 
	C233.405670,249.003983 235.677139,246.453964 241.382874,246.976288 
	C246.836319,247.475494 252.390701,247.370270 257.864532,246.998322 
	C262.664124,246.672180 264.776520,248.816040 265.917450,253.158615 
	C271.876465,275.839813 277.962524,298.487671 284.028320,321.140717 
	C285.123199,325.229645 286.329651,329.288696 288.619110,333.503784 
	C289.356659,331.296722 290.257111,329.129364 290.806763,326.876465 
	C296.719940,302.638824 302.691772,278.414276 308.361877,254.119507 
	C309.606659,248.786041 311.989044,246.311188 317.601501,247.018356 
	C320.554077,247.390381 323.593140,247.036346 326.591583,247.093338 
	C331.981110,247.195786 333.377869,249.032944 332.020782,254.169479 
	C324.885651,281.175751 317.744049,308.180298 310.452271,335.565857 
z"/>
<path fill="#F08B24" opacity="1.000000" stroke="none" 
	d="
M280.008118,142.981598 
	C298.880768,149.543015 312.959686,162.032684 323.133514,178.880295 
	C326.870758,185.069046 329.517670,191.984375 332.107117,198.779694 
	C334.929382,206.186005 332.102417,212.646942 325.778320,214.747025 
	C319.397034,216.866089 313.534729,213.306824 311.135803,205.775787 
	C305.162598,187.023605 293.327728,173.484482 275.508911,165.025558 
	C244.240921,150.182053 203.327423,165.877563 190.206512,197.917404 
	C188.950226,200.985168 187.908493,204.146118 186.878922,207.300278 
	C184.866074,213.466736 178.633926,216.889252 172.769119,214.972656 
	C166.716827,212.994797 163.787994,206.963745 165.689209,200.643051 
	C174.258987,172.152252 192.315994,152.507339 220.879059,142.160629 
	C223.145020,142.096344 224.803421,142.062790 226.366898,141.660416 
	C238.871002,138.442337 251.496628,138.057190 264.203705,140.043015 
	C269.495667,140.870010 274.741364,141.993134 280.008118,142.981598 
z"/>
<path fill="#EF8C20" opacity="1.000000" stroke="none" 
	d="
M279.743042,142.746918 
	C274.741364,141.993134 269.495667,140.870010 264.203705,140.043015 
	C251.496628,138.057190 238.871002,138.442337 226.366898,141.660416 
	C224.803421,142.062790 223.145020,142.096344 221.251709,142.119522 
	C240.545868,134.858688 260.043762,135.438660 279.743042,142.746918 
z"/>
</svg>