<svg version="1.1" id="Layer_1" xmlns="http://www.w3.org/2000/svg" xmlns:xlink="http://www.w3.org/1999/xlink" x="0px" y="0px"
	 width="100%" viewBox="0 0 500 499" enable-background="new 0 0 500 499" xml:space="preserve">
<path fill="#1AB4D8" opacity="1.000000" stroke="none" 
	d="
M164.000000,500.000000 
	C162.611115,500.000000 161.222214,500.000000 159.255005,499.721008 
	C158.078140,499.231537 157.479599,499.021088 156.522797,498.631836 
	C154.185150,498.308105 152.205872,498.038116 150.226364,498.036530 
	C101.160942,497.997253 52.095493,497.986389 3.021848,497.504822 
	C3.009294,460.648926 3.021752,424.258636 2.960288,387.868439 
	C2.956457,385.600555 2.372833,383.333649 2.033051,380.620728 
	C2.025790,378.093170 2.044434,376.011139 2.261606,373.577209 
	C2.336732,367.182373 2.213331,361.139496 2.066410,354.622437 
	C1.695260,347.098877 1.347630,340.049438 1.000000,333.000000 
	C1.000000,331.933319 1.000000,330.866669 1.333902,329.208435 
	C2.108041,326.920013 2.930401,325.223694 2.932882,323.526184 
	C3.003200,275.415314 3.011677,227.304245 2.908158,179.193481 
	C2.904430,177.460968 1.664044,175.731094 1.000001,174.000000 
	C1.000000,174.000000 1.000000,173.500000 1.208533,172.893616 
	C1.610781,169.982330 1.972154,167.677521 1.973637,165.372482 
	C2.008676,110.917976 2.004948,56.463440 2.476121,2.006141 
	C55.197109,2.002205 107.450310,2.014453 159.703430,1.957451 
	C162.135971,1.954797 164.567825,1.333290 167.000000,1.000000 
	C168.388885,1.000000 169.777786,1.000000 171.938385,1.211495 
	C174.511658,1.615727 176.313126,1.975684 178.114807,1.976824 
	C227.148636,2.007855 276.182465,2.013615 325.216248,1.960372 
	C327.144501,1.958278 329.072113,1.334242 331.000000,1.000000 
	C332.714355,1.000000 334.428711,1.000000 336.928223,1.208246 
	C340.017731,1.610964 342.321960,1.973741 344.626434,1.975179 
	C396.078156,2.007276 447.529877,1.999568 498.985229,2.468081 
	C498.992157,56.644550 498.985077,110.352341 499.034668,164.060089 
	C499.036774,166.338577 499.564484,168.616577 499.889343,171.216522 
	C500.287567,172.025482 500.643768,172.512741 501.000000,173.000000 
	C501.000000,177.356903 501.000000,181.713806 500.668518,186.802490 
	C500.217377,188.352448 499.993408,189.170578 499.992981,189.988815 
	C499.973022,229.781494 499.963257,269.574158 500.012817,309.366791 
	C500.014313,310.578278 500.656525,311.788940 501.000000,313.000000 
	C501.000000,318.688049 501.000000,324.376068 500.659485,330.788025 
	C500.214752,339.641571 500.031525,347.771118 500.019379,355.900940 
	C499.948700,403.275055 499.918121,450.649261 499.414246,498.014587 
	C449.960846,498.007477 400.967163,497.998230 351.973541,498.045288 
	C349.685913,498.047485 347.398712,498.551880 344.761536,498.845306 
	C343.607819,499.245483 342.803894,499.622742 342.000000,500.000000 
	C340.933319,500.000000 339.866669,500.000000 338.189209,499.682526 
	C335.877838,498.925385 334.177704,498.103638 332.476532,498.101501 
	C278.235992,498.033203 223.995377,498.024200 169.754974,498.125732 
	C167.835495,498.129333 165.918274,499.347778 164.000000,500.000000 
M144.795425,237.846542 
	C135.338577,228.490784 125.926590,219.089005 116.403008,209.801682 
	C112.540260,206.034760 108.394867,206.225021 106.464325,210.086838 
	C104.833504,213.349091 106.510498,215.722397 108.781235,218.002167 
	C117.926849,227.184128 127.001862,236.436417 136.060806,246.588577 
	C136.071884,247.823868 136.082962,249.059158 135.809860,250.878876 
	C127.258751,259.498016 118.697151,268.106781 110.160698,276.740417 
	C105.465492,281.489105 104.703339,284.448822 107.362152,287.255219 
	C110.155746,290.203888 113.293266,289.329956 118.282028,284.419281 
	C127.274887,275.567291 136.325607,266.774078 146.319916,257.987549 
	C146.961411,257.965240 147.602890,257.942963 148.840927,258.188446 
	C157.474564,266.754974 166.100372,275.329437 174.749680,283.880096 
	C176.168839,285.283112 177.499161,287.274200 179.215424,287.750305 
	C181.288712,288.325500 184.727798,288.413757 185.757416,287.186829 
	C187.031891,285.668152 186.738358,282.554871 186.516617,280.187195 
	C186.418518,279.139893 184.864105,278.199524 183.916489,277.265778 
	C174.219147,267.710358 164.510635,258.166290 154.626083,248.442780 
	C156.282120,246.652771 157.355377,245.417664 158.506683,244.260178 
	C167.201401,235.518829 175.936340,226.817337 184.606888,218.052139 
	C189.427689,213.178680 188.991562,210.440552 182.797134,206.393494 
	C182.202789,206.551147 181.608429,206.708817 180.463104,207.275620 
	C178.934250,208.519913 177.300446,209.656403 175.893524,211.025925 
	C166.656586,220.017319 157.468628,229.059006 147.295303,238.070251 
	C146.648209,238.085754 146.001129,238.101273 144.795425,237.846542 
M236.648407,253.329636 
	C243.984207,253.518265 251.319550,253.756454 258.656464,253.822083 
	C259.425201,253.828979 260.203064,252.816895 261.618469,251.946503 
	C268.497559,248.433563 270.062958,245.054108 268.140289,237.867325 
	C263.488922,220.480896 249.059891,208.235931 231.757782,206.991882 
	C214.042938,205.718155 197.537018,215.555359 190.717148,231.451279 
	C183.547974,248.161362 187.596466,266.714874 201.078751,278.936707 
	C218.516434,294.744202 247.208603,291.929352 260.870178,273.080170 
	C263.081696,270.028870 263.802765,266.892273 260.604675,264.199585 
	C257.328217,261.440948 254.440216,262.746338 252.048035,265.774078 
	C245.623962,273.905029 237.607773,277.608917 226.894089,277.204407 
	C215.902878,276.789429 208.302628,272.203003 203.271362,262.518158 
	C202.507874,261.344543 201.744370,260.170898 200.530579,258.526978 
	C200.320679,257.700012 200.110764,256.873016 200.321457,255.495590 
	C200.554398,254.613022 200.787338,253.730438 201.825241,252.641678 
	C203.199326,252.716110 204.573425,252.790543 206.589783,253.308380 
	C209.076523,253.161331 211.563248,253.014282 214.672684,252.665939 
	C215.098312,252.733566 215.523926,252.801193 216.627869,253.322540 
	C220.101837,253.170959 223.575790,253.019379 227.918610,252.650162 
	C230.595245,252.722534 233.271896,252.794907 236.648407,253.329636 
M323.349487,217.831268 
	C312.764771,228.081879 308.665863,240.487015 310.861084,255.047852 
	C314.045410,276.169037 334.293060,291.353333 356.177948,288.965820 
	C377.711823,286.616608 394.192688,266.840271 392.412170,245.559937 
	C391.006012,228.754181 382.703461,216.600952 367.233032,210.095657 
	C351.508179,203.483368 336.921631,206.549179 323.349487,217.831268 
M280.144470,255.499969 
	C280.146759,263.998016 280.220703,272.496918 280.120056,280.993744 
	C280.072205,285.030243 281.343811,288.251404 285.710083,288.305206 
	C290.093903,288.359222 291.241241,285.378021 291.222229,281.160858 
	C291.151611,265.501495 291.208649,249.834366 291.650391,234.182358 
	C291.965118,223.030716 295.209229,219.907257 306.352539,218.709946 
	C310.086365,218.308762 313.141052,217.030777 312.839111,212.786972 
	C312.522858,208.342072 309.064880,206.943344 305.268829,207.554703 
	C300.596741,208.307175 296.042755,209.793243 292.383209,210.722244 
	C289.175293,209.895325 286.240692,208.223984 283.710083,208.700012 
	C279.871002,209.422195 280.122742,213.266998 280.132294,216.508789 
	C280.169586,229.172424 280.146210,241.836212 280.144470,255.499969 
z"/>
<path fill="#09C3D2" opacity="1.000000" stroke="none" 
	d="
M164.468628,500.000000 
	C165.918274,499.347778 167.835495,498.129333 169.754974,498.125732 
	C223.995377,498.024200 278.235992,498.033203 332.476532,498.101501 
	C334.177704,498.103638 335.877838,498.925385 337.789246,499.682526 
	C330.312408,500.000000 322.624847,500.000000 314.197418,499.671814 
	C312.476715,499.204071 311.495911,498.943024 310.514984,498.942474 
	C270.720367,498.919678 230.925766,498.909515 191.131241,498.963623 
	C189.753693,498.965485 188.377060,499.639343 187.000000,500.000000 
	C179.645752,500.000000 172.291504,500.000000 164.468628,500.000000 
z"/>
<path fill="#09C3D2" opacity="1.000000" stroke="none" 
	d="
M1.000001,174.467941 
	C1.664044,175.731094 2.904430,177.460968 2.908158,179.193481 
	C3.011677,227.304245 3.003200,275.415314 2.932882,323.526184 
	C2.930401,325.223694 2.108041,326.920013 1.333902,328.808441 
	C1.000000,322.312347 1.000000,315.624725 1.285120,308.161255 
	C1.712381,306.405731 1.978147,305.426117 1.978808,304.446350 
	C2.003144,268.369873 2.014244,232.293396 1.963532,196.216995 
	C1.961555,194.810883 1.335343,193.405640 1.000000,192.000000 
	C1.000000,186.311966 1.000000,180.623917 1.000001,174.467941 
z"/>
<path fill="#6E87EC" opacity="1.000000" stroke="none" 
	d="
M501.000000,172.531342 
	C500.643768,172.512741 500.287567,172.025482 499.942200,170.758926 
	C499.968719,113.653076 499.984344,57.326538 500.000000,0.999999 
	C500.333344,2.329106 500.957031,3.657960 500.958191,4.987359 
	C501.006927,60.679104 501.000000,116.370895 501.000000,172.531342 
z"/>
<path fill="#31B2DC" opacity="1.000000" stroke="none" 
	d="
M2.008316,2.008909 
	C2.004948,56.463440 2.008676,110.917976 1.973637,165.372482 
	C1.972154,167.677521 1.610781,169.982330 1.208533,172.643616 
	C1.000000,115.666664 1.000000,58.333332 1.501944,1.252228 
	C2.005364,1.672607 2.006840,1.840758 2.008316,2.008909 
z"/>
<path fill="#09C3D2" opacity="1.000000" stroke="none" 
	d="
M499.750000,1.000000 
	C499.984344,57.326538 499.968719,113.653076 499.900208,170.437210 
	C499.564484,168.616577 499.036774,166.338577 499.034668,164.060089 
	C498.985077,110.352341 498.992157,56.644550 498.993347,2.218293 
	C498.997894,1.499822 499.000000,1.000000 499.000000,1.000000 
	C499.000000,1.000000 499.500000,1.000000 499.750000,1.000000 
z"/>
<path fill="#8479F3" opacity="1.000000" stroke="none" 
	d="
M499.873993,498.023438 
	C499.918121,450.649261 499.948700,403.275055 500.019379,355.900940 
	C500.031525,347.771118 500.214752,339.641571 500.659485,331.255951 
	C501.000000,387.333344 501.000000,443.666656 500.483154,499.721863 
	C499.956543,499.258209 499.946716,499.072723 499.948914,498.669250 
	C499.960876,498.451294 499.873993,498.023438 499.873993,498.023438 
z"/>
<path fill="#4EA1E3" opacity="1.000000" stroke="none" 
	d="
M2.063078,373.929138 
	C2.044434,376.011139 2.025790,378.093170 2.015844,381.081848 
	C2.030236,420.660217 2.035930,459.331879 2.027792,498.239563 
	C2.013960,498.475586 2.072558,498.944794 1.804563,498.961395 
	C1.357711,498.985321 1.178856,498.992645 1.000000,499.000000 
	C1.000000,443.979095 1.000000,388.958221 1.000000,333.468658 
	C1.347630,340.049438 1.695260,347.098877 2.040736,355.079651 
	C2.046747,361.983673 2.054913,367.956421 2.063078,373.929138 
z"/>
<path fill="#27B7D9" opacity="1.000000" stroke="none" 
	d="
M2.476121,2.006141 
	C2.006840,1.840758 2.005364,1.672607 2.001944,1.252228 
	C56.687561,1.000000 111.375122,1.000000 166.531342,1.000000 
	C164.567825,1.333290 162.135971,1.954797 159.703430,1.957451 
	C107.450310,2.014453 55.197109,2.002205 2.476121,2.006141 
z"/>
<path fill="#27B7D9" opacity="1.000000" stroke="none" 
	d="
M498.531342,1.000000 
	C499.000000,1.000000 498.997894,1.499822 498.989746,1.749610 
	C447.529877,1.999568 396.078156,2.007276 344.626434,1.975179 
	C342.321960,1.973741 340.017731,1.610964 337.356689,1.208246 
	C390.687561,1.000000 444.375122,1.000000 498.531342,1.000000 
z"/>
<path fill="#27B7D9" opacity="1.000000" stroke="none" 
	d="
M330.531342,1.000000 
	C329.072113,1.334242 327.144501,1.958278 325.216248,1.960372 
	C276.182465,2.013615 227.148636,2.007855 178.114807,1.976824 
	C176.313126,1.975684 174.511658,1.615727 172.355042,1.211495 
	C224.687561,1.000000 277.375122,1.000000 330.531342,1.000000 
z"/>
<path fill="#6E87EC" opacity="1.000000" stroke="none" 
	d="
M499.936920,498.887207 
	C499.946716,499.072723 499.956543,499.258209 499.983154,499.721863 
	C447.645782,500.000000 395.291534,500.000000 342.468658,500.000000 
	C342.803894,499.622742 343.607819,499.245483 345.218109,498.904327 
	C397.328644,498.922668 448.632782,498.904938 499.936920,498.887207 
z"/>
<path fill="#6E87EC" opacity="1.000000" stroke="none" 
	d="
M1.000000,499.500000 
	C1.178856,498.992645 1.357711,498.985321 2.267068,498.986481 
	C30.145319,498.997681 57.293098,499.026276 84.440811,498.995453 
	C108.587593,498.968048 132.734314,498.874817 156.881058,498.810669 
	C157.479599,499.021088 158.078140,499.231537 158.838348,499.721008 
	C106.333336,500.000000 53.666668,500.000000 1.000000,499.500000 
z"/>
<path fill="#6E87EC" opacity="1.000000" stroke="none" 
	d="
M187.468658,500.000000 
	C188.377060,499.639343 189.753693,498.965485 191.131241,498.963623 
	C230.925766,498.909515 270.720367,498.919678 310.514984,498.942474 
	C311.495911,498.943024 312.476715,499.204071 313.728790,499.671814 
	C271.979095,500.000000 229.958206,500.000000 187.468658,500.000000 
z"/>
<path fill="#9170F6" opacity="1.000000" stroke="none" 
	d="
M501.000000,312.531342 
	C500.656525,311.788940 500.014313,310.578278 500.012817,309.366791 
	C499.963257,269.574158 499.973022,229.781494 499.992981,189.988815 
	C499.993408,189.170578 500.217377,188.352448 500.668518,187.267120 
	C501.000000,228.687561 501.000000,270.375122 501.000000,312.531342 
z"/>
<path fill="#5E97E8" opacity="1.000000" stroke="none" 
	d="
M1.000000,192.468658 
	C1.335343,193.405640 1.961555,194.810883 1.963532,196.216995 
	C2.014244,232.293396 2.003144,268.369873 1.978808,304.446350 
	C1.978147,305.426117 1.712381,306.405731 1.285120,307.692688 
	C1.000000,269.645782 1.000000,231.291550 1.000000,192.468658 
z"/>
<path fill="#F8FDFD" opacity="1.000000" stroke="none" 
	d="
M202.974258,263.011353 
	C208.302628,272.203003 215.902878,276.789429 226.894089,277.204407 
	C237.607773,277.608917 245.623962,273.905029 252.048035,265.774078 
	C254.440216,262.746338 257.328217,261.440948 260.604675,264.199585 
	C263.802765,266.892273 263.081696,270.028870 260.870178,273.080170 
	C247.208603,291.929352 218.516434,294.744202 201.078751,278.936707 
	C187.596466,266.714874 183.547974,248.161362 190.717148,231.451279 
	C197.537018,215.555359 214.042938,205.718155 231.757782,206.991882 
	C249.059891,208.235931 263.488922,220.480896 268.140289,237.867325 
	C270.062958,245.054108 268.497559,248.433563 260.885834,252.125427 
	C252.084976,252.491989 244.016754,252.679626 235.948532,252.867279 
	C233.271896,252.794907 230.595245,252.722534 227.028564,252.671448 
	C222.742203,252.751419 219.345886,252.810135 215.949554,252.868835 
	C215.523926,252.801193 215.098312,252.733566 213.917999,252.678833 
	C210.758057,252.749481 208.352783,252.807220 205.947510,252.864960 
	C204.573425,252.790543 203.199326,252.716110 201.077789,252.691681 
	C200.187164,253.843124 200.044006,254.944595 199.900848,256.046051 
	C200.110764,256.873016 200.320679,257.700012 200.781006,259.090485 
	C201.679047,260.773102 202.326660,261.892242 202.974258,263.011353 
M226.592651,218.442184 
	C212.149063,220.148682 200.136551,230.434204 200.387695,240.941574 
	C219.098434,240.941574 237.809570,240.941574 256.567322,240.941574 
	C254.011719,227.587204 242.487106,218.737762 226.592651,218.442184 
z"/>
<path fill="#FAFDFE" opacity="1.000000" stroke="none" 
	d="
M323.606293,217.586975 
	C336.921631,206.549179 351.508179,203.483368 367.233032,210.095657 
	C382.703461,216.600952 391.006012,228.754181 392.412170,245.559937 
	C394.192688,266.840271 377.711823,286.616608 356.177948,288.965820 
	C334.293060,291.353333 314.045410,276.169037 310.861084,255.047852 
	C308.665863,240.487015 312.764771,228.081879 323.606293,217.586975 
M371.360443,269.874756 
	C382.432129,258.412415 384.134979,243.591629 375.802002,231.217484 
	C368.308197,220.089462 353.341553,215.278564 340.895172,220.359619 
	C329.805420,224.886856 323.092865,233.239975 322.105286,245.262009 
	C321.054016,258.059662 326.318207,268.110596 337.768738,274.119476 
	C349.425690,280.236694 360.593445,278.507202 371.360443,269.874756 
z"/>
<path fill="#FAFDFE" opacity="1.000000" stroke="none" 
	d="
M136.102951,245.662720 
	C127.001862,236.436417 117.926849,227.184128 108.781235,218.002167 
	C106.510498,215.722397 104.833504,213.349091 106.464325,210.086838 
	C108.394867,206.225021 112.540260,206.034760 116.403008,209.801682 
	C125.926590,219.089005 135.338577,228.490784 145.302002,238.300079 
	C146.627289,238.530502 147.445984,238.307388 148.264679,238.084259 
	C157.468628,229.059006 166.656586,220.017319 175.893524,211.025925 
	C177.300446,209.656403 178.934250,208.519913 181.067078,207.084030 
	C182.107986,206.864548 182.544891,206.836670 182.981812,206.808777 
	C188.991562,210.440552 189.427689,213.178680 184.606888,218.052139 
	C175.936340,226.817337 167.201401,235.518829 158.506683,244.260178 
	C157.355377,245.417664 156.282120,246.652771 154.626083,248.442780 
	C164.510635,258.166290 174.219147,267.710358 183.916489,277.265778 
	C184.864105,278.199524 186.418518,279.139893 186.516617,280.187195 
	C186.738358,282.554871 187.031891,285.668152 185.757416,287.186829 
	C184.727798,288.413757 181.288712,288.325500 179.215424,287.750305 
	C177.499161,287.274200 176.168839,285.283112 174.749680,283.880096 
	C166.100372,275.329437 157.474564,266.754974 148.331589,257.717590 
	C146.998871,257.483246 146.175491,257.719757 145.352142,257.956268 
	C136.325607,266.774078 127.274887,275.567291 118.282028,284.419281 
	C113.293266,289.329956 110.155746,290.203888 107.362152,287.255219 
	C104.703339,284.448822 105.465492,281.489105 110.160698,276.740417 
	C118.697151,268.106781 127.258751,259.498016 136.266235,250.415131 
	C139.123215,248.145142 138.029907,246.843704 136.102951,245.662720 
z"/>
<path fill="#FAFDFE" opacity="1.000000" stroke="none" 
	d="
M280.144928,254.999969 
	C280.146210,241.836212 280.169586,229.172424 280.132294,216.508789 
	C280.122742,213.266998 279.871002,209.422195 283.710083,208.700012 
	C286.240692,208.223984 289.175293,209.895325 292.383209,210.722244 
	C296.042755,209.793243 300.596741,208.307175 305.268829,207.554703 
	C309.064880,206.943344 312.522858,208.342072 312.839111,212.786972 
	C313.141052,217.030777 310.086365,218.308762 306.352539,218.709946 
	C295.209229,219.907257 291.965118,223.030716 291.650391,234.182358 
	C291.208649,249.834366 291.151611,265.501495 291.222229,281.160858 
	C291.241241,285.378021 290.093903,288.359222 285.710083,288.305206 
	C281.343811,288.251404 280.072205,285.030243 280.120056,280.993744 
	C280.220703,272.496918 280.146759,263.998016 280.144928,254.999969 
z"/>
<path fill="#09C3D2" opacity="1.000000" stroke="none" 
	d="
M156.522797,498.631836 
	C132.734314,498.874817 108.587593,498.968048 84.440811,498.995453 
	C57.293098,499.026276 30.145319,498.997681 2.535064,498.969879 
	C2.072558,498.944794 2.013960,498.475586 2.274797,498.231842 
	C2.535634,497.988098 3.030048,497.970459 3.030048,497.970459 
	C52.095493,497.986389 101.160942,497.997253 150.226364,498.036530 
	C152.205872,498.038116 154.185150,498.308105 156.522797,498.631836 
z"/>
<path fill="#09C3D2" opacity="1.000000" stroke="none" 
	d="
M499.948914,498.669250 
	C448.632782,498.904938 397.328644,498.922668 345.567932,498.881378 
	C347.398712,498.551880 349.685913,498.047485 351.973541,498.045288 
	C400.967163,497.998230 449.960846,498.007477 499.414246,498.014587 
	C499.873993,498.023438 499.960876,498.451294 499.948914,498.669250 
z"/>
<path fill="#0DBBD4" opacity="1.000000" stroke="none" 
	d="
M3.021848,497.504822 
	C3.030048,497.970459 2.535634,497.988098 2.288629,497.995850 
	C2.035930,459.331879 2.030236,420.660217 2.041749,381.527405 
	C2.372833,383.333649 2.956457,385.600555 2.960288,387.868439 
	C3.021752,424.258636 3.009294,460.648926 3.021848,497.504822 
z"/>
<path fill="#08AED4" opacity="1.000000" stroke="none" 
	d="
M236.298462,253.098450 
	C244.016754,252.679626 252.084976,252.491989 260.564941,252.290955 
	C260.203064,252.816895 259.425201,253.828979 258.656464,253.822083 
	C251.319550,253.756454 243.984207,253.518265 236.298462,253.098450 
z"/>
<path fill="#0DBBD4" opacity="1.000000" stroke="none" 
	d="
M2.261606,373.577209 
	C2.054913,367.956421 2.046747,361.983673 2.064256,355.553772 
	C2.213331,361.139496 2.336732,367.182373 2.261606,373.577209 
z"/>
<path fill="#08AED4" opacity="1.000000" stroke="none" 
	d="
M216.288712,253.095688 
	C219.345886,252.810135 222.742203,252.751419 226.594147,252.780258 
	C223.575790,253.019379 220.101837,253.170959 216.288712,253.095688 
z"/>
<path fill="#08AED4" opacity="1.000000" stroke="none" 
	d="
M206.268646,253.086670 
	C208.352783,252.807220 210.758057,252.749481 213.606659,252.779495 
	C211.563248,253.014282 209.076523,253.161331 206.268646,253.086670 
z"/>
<path fill="#08AED4" opacity="1.000000" stroke="none" 
	d="
M203.122803,262.764771 
	C202.326660,261.892242 201.679047,260.773102 201.006165,259.325623 
	C201.744370,260.170898 202.507874,261.344543 203.122803,262.764771 
z"/>
<path fill="#08AED4" opacity="1.000000" stroke="none" 
	d="
M200.111145,255.770813 
	C200.044006,254.944595 200.187164,253.843124 200.675293,252.794769 
	C200.787338,253.730438 200.554398,254.613022 200.111145,255.770813 
z"/>
<path fill="#08AED4" opacity="1.000000" stroke="none" 
	d="
M136.081879,246.125641 
	C138.029907,246.843704 139.123215,248.145142 136.408325,250.122925 
	C136.082962,249.059158 136.071884,247.823868 136.081879,246.125641 
z"/>
<path fill="#08AED4" opacity="1.000000" stroke="none" 
	d="
M182.889465,206.601135 
	C182.544891,206.836670 182.107986,206.864548 181.342575,206.879456 
	C181.608429,206.708817 182.202789,206.551147 182.889465,206.601135 
z"/>
<path fill="#08AED4" opacity="1.000000" stroke="none" 
	d="
M145.836029,257.971924 
	C146.175491,257.719757 146.998871,257.483246 148.033325,257.583710 
	C147.602890,257.942963 146.961411,257.965240 145.836029,257.971924 
z"/>
<path fill="#08AED4" opacity="1.000000" stroke="none" 
	d="
M147.779999,238.077255 
	C147.445984,238.307388 146.627289,238.530502 145.581314,238.435211 
	C146.001129,238.101273 146.648209,238.085754 147.779999,238.077255 
z"/>
<path fill="#1AB4D8" opacity="1.000000" stroke="none" 
	d="
M227.063278,218.437317 
	C242.487106,218.737762 254.011719,227.587204 256.567322,240.941574 
	C237.809570,240.941574 219.098434,240.941574 200.387695,240.941574 
	C200.136551,230.434204 212.149063,220.148682 227.063278,218.437317 
z"/>
<path fill="#1CB5D8" opacity="1.000000" stroke="none" 
	d="
M371.096985,270.118927 
	C360.593445,278.507202 349.425690,280.236694 337.768738,274.119476 
	C326.318207,268.110596 321.054016,258.059662 322.105286,245.262009 
	C323.092865,233.239975 329.805420,224.886856 340.895172,220.359619 
	C353.341553,215.278564 368.308197,220.089462 375.802002,231.217484 
	C384.134979,243.591629 382.432129,258.412415 371.096985,270.118927 
M351.487610,237.876495 
	C344.361145,238.775970 340.080383,243.856598 341.383453,249.868698 
	C342.511139,255.071564 347.076599,258.536438 352.279358,258.137939 
	C357.312469,257.752380 361.256165,253.825897 361.691467,248.766937 
	C362.157166,243.354691 358.718414,239.368759 351.487610,237.876495 
z"/>
<path fill="#FAFDFE" opacity="1.000000" stroke="none" 
	d="
M351.895691,237.880951 
	C358.718414,239.368759 362.157166,243.354691 361.691467,248.766937 
	C361.256165,253.825897 357.312469,257.752380 352.279358,258.137939 
	C347.076599,258.536438 342.511139,255.071564 341.383453,249.868698 
	C340.080383,243.856598 344.361145,238.775970 351.895691,237.880951 
z"/>
</svg>