<?xml version="1.0" standalone="no"?>
<!DOCTYPE svg PUBLIC "-//W3C//DTD SVG 20010904//EN"
 "http://www.w3.org/TR/2001/REC-SVG-20010904/DTD/svg10.dtd">
<svg version="1.0" xmlns="http://www.w3.org/2000/svg"
 width="992.000000pt" height="990.000000pt" viewBox="0 0 992.000000 990.000000"
 preserveAspectRatio="xMidYMid meet">
<metadata>
Created by potrace 1.16, written by Peter Selinger 2001-2019
</metadata>
<g transform="translate(0.000000,990.000000) scale(0.100000,-0.100000)"
fill="#FF5745" stroke="none">
<path d="M0 4950 l0 -4950 4954 0 4954 0 6 2913 c4 1601 5 3829 4 4949 l-3
2038 -4957 0 -4958 0 0 -4950z m3960 1615 c36 -8 92 -22 125 -30 33 -9 87 -22
120 -30 33 -7 150 -36 260 -64 110 -28 209 -51 221 -51 11 0 24 -3 28 -7 4 -5
33 -13 64 -19 55 -11 310 -74 382 -94 43 -12 629 -155 725 -177 39 -9 82 -20
98 -26 l27 -9 0 -178 0 -178 -82 -41 c-46 -23 -141 -72 -213 -110 -71 -38
-179 -94 -240 -125 -165 -84 -299 -155 -311 -165 -6 -5 -21 -12 -35 -16 -13
-4 -26 -10 -29 -14 -3 -3 -50 -28 -105 -55 -55 -27 -102 -52 -105 -55 -3 -3
-50 -28 -105 -56 -55 -27 -102 -52 -105 -55 -6 -7 -95 -50 -103 -50 -3 0 -30
-14 -59 -31 -29 -17 -116 -63 -193 -102 -77 -39 -142 -73 -145 -76 -15 -17
-312 -161 -320 -156 -6 4 -10 76 -10 175 l0 169 40 17 c22 10 40 21 40 25 0 4
14 10 30 14 17 4 30 11 30 16 0 5 4 9 10 9 12 0 83 35 385 190 132 68 255 131
274 140 38 19 35 21 -39 35 -19 3 -44 10 -55 15 -11 5 -40 13 -65 18 -44 9
-404 99 -505 127 -27 7 -71 19 -97 25 l-48 13 0 158 c0 178 -4 170 75 148 22
-7 67 -18 100 -26 194 -45 268 -64 500 -122 110 -28 209 -51 221 -51 11 0 24
-3 28 -7 4 -5 33 -13 64 -19 31 -6 108 -25 169 -41 l113 -29 47 26 c27 14 50
28 51 33 2 4 9 7 16 7 7 0 48 19 92 41 43 23 114 59 156 81 43 21 80 43 83 48
3 5 -7 12 -22 16 -15 3 -46 11 -68 16 -22 6 -65 16 -95 24 -30 7 -82 19 -115
27 -91 22 -465 116 -505 127 -19 5 -80 21 -135 34 -135 33 -382 94 -425 106
-19 5 -75 19 -125 31 -49 12 -120 30 -157 40 l-68 20 0 161 0 160 23 -6 c12
-4 51 -13 87 -21z m2050 -1419 l0 -173 -72 -37 c-40 -20 -107 -55 -148 -76
-41 -22 -81 -40 -87 -40 -7 0 -13 -4 -13 -10 0 -5 -6 -10 -12 -10 -7 0 -26 -7
-43 -16 -16 -9 -122 -63 -234 -120 -113 -57 -209 -108 -213 -112 -8 -8 18 -16
222 -66 58 -14 119 -30 136 -36 16 -5 50 -14 75 -19 24 -6 89 -22 144 -36 55
-15 120 -31 145 -36 25 -5 57 -14 73 -20 l27 -11 0 -160 0 -159 -37 6 c-21 4
-49 10 -63 15 -23 8 -100 28 -250 64 -30 8 -84 21 -120 30 -36 8 -119 29 -185
45 -158 38 -282 69 -325 82 -19 5 -55 14 -80 18 -25 5 -81 18 -125 29 l-79 20
-136 -71 c-74 -39 -177 -92 -229 -118 l-93 -46 53 -16 c30 -9 95 -26 144 -37
96 -23 146 -36 265 -69 41 -12 82 -21 91 -21 9 0 39 -7 65 -15 61 -18 443
-114 504 -126 25 -5 56 -13 70 -18 14 -5 68 -19 120 -31 52 -12 124 -30 160
-40 36 -11 99 -26 140 -35 41 -9 83 -19 93 -22 15 -4 17 -20 17 -164 0 -185
14 -171 -135 -133 -55 14 -120 30 -145 35 -25 5 -56 13 -70 18 -14 5 -70 19
-125 31 -55 12 -120 28 -145 35 -42 12 -98 26 -250 62 -36 8 -92 22 -125 30
-33 8 -85 20 -115 28 -30 7 -129 32 -220 55 -91 23 -190 48 -220 55 -82 19
-188 45 -250 60 -30 8 -86 21 -125 30 -38 10 -90 23 -115 30 -25 8 -62 17 -82
20 l-38 7 0 177 0 177 68 35 c37 18 69 37 72 40 3 4 16 10 30 14 14 4 27 10
30 14 3 3 50 28 105 55 55 28 102 52 105 55 3 3 50 28 105 56 55 27 102 52
105 55 3 3 43 24 90 47 146 73 394 201 405 210 6 4 60 33 120 64 208 106 240
123 245 130 3 3 16 10 30 14 14 4 27 10 30 14 3 3 68 38 145 77 239 122 330
169 335 174 10 10 115 59 128 59 9 1 12 -40 12 -173z"/>
</g>
</svg>
